<svg width="912" height="722" viewBox="0 0 912 722" fill="none" xmlns="http://www.w3.org/2000/svg">
<path fill-rule="evenodd" clip-rule="evenodd" d="M211.829 2.46976C207.959 7.38876 209.844 22.8348 214.313 22.8348C216.274 22.8348 216.492 21.9778 217.166 11.6448C217.627 4.56876 217.443 2.66476 216.173 1.39476C214.173 -0.605237 214.265 -0.62824 211.829 2.46976ZM235.248 22.7618C230.565 24.8478 228.995 26.5158 227.805 30.6658C226.59 34.8988 229.042 35.6168 233.389 32.3008C235.429 30.7448 239.003 29.3638 242.435 28.8058C249.384 27.6748 250.665 26.1368 247.199 23.0848C244.171 20.4178 240.718 20.3248 235.248 22.7618ZM145.459 35.2768C132.259 39.9858 121.215 53.6798 120.024 66.8168L119.471 72.9158L117.363 70.9878C110.369 64.5898 96.7187 62.1858 84.7807 65.2478C73.5507 68.1288 65.5407 73.9118 58.7977 84.0098C52.1647 93.9418 50.6197 100.494 49.8727 121.846C49.0187 146.247 49.0497 146.181 28.3957 166.891C19.9247 175.385 11.1327 185.228 8.8597 188.763C-4.1603 209.009 -2.6763 237.016 12.2987 253.671C20.6687 262.981 30.7637 267.671 47.2607 269.915C52.2077 270.588 56.3727 271.224 56.5147 271.329C56.6567 271.434 55.3737 274.235 53.6617 277.553C46.4477 291.542 49.4937 316.029 64.6437 365.835C87.8377 442.087 126.844 525.391 153.909 556.476C162.442 566.276 172.208 573.533 186.606 580.772C193.262 584.118 215.038 591.795 217.947 591.82C220.496 591.842 220.998 593.465 219.411 596.556C218.626 598.084 216.087 604.735 213.77 611.335C211.452 617.935 204.705 635.935 198.775 651.335C185.645 685.437 181.701 697.462 181.022 705.457L180.503 711.579L164.879 712.082C148.997 712.593 145.38 713.193 146.041 715.208C146.804 717.538 156.795 718.777 180.204 719.444C206.417 720.192 212.852 719.497 216.585 715.51C227.358 704.008 253.818 632.278 258.291 602.449C258.958 598.002 259.021 597.938 262.113 598.583C265.545 599.298 273.105 599.3 506.756 598.646C619.315 598.33 672.142 597.827 686.256 596.936C697.256 596.242 707.803 595.597 709.693 595.504C712.822 595.35 713.217 595.649 714.1 598.835C714.634 600.76 718.783 613.81 723.321 627.835C727.86 641.86 735.026 664.093 739.247 677.243C743.467 690.392 748.009 703.61 749.338 706.617C750.668 709.624 751.756 712.253 751.756 712.459C751.756 712.666 744.218 712.878 735.006 712.931C718.375 713.026 708.765 714.289 708.041 716.474C707.121 719.249 730.861 721.361 758.756 720.986C783.696 720.65 791.756 718.011 791.756 710.177C791.756 697.027 767.886 628.927 752.667 598.658C750.516 594.38 748.756 590.696 748.756 590.471C748.756 590.246 750.893 589.747 753.506 589.361C760.729 588.296 778.609 582.222 784.468 578.844C814.056 561.782 862.945 477.258 890.879 394.869C920.278 308.158 918.662 254.638 885.985 232.782C875.139 225.528 860.615 221.835 842.931 221.835H836.553L837.405 214.585C837.873 210.597 838.233 198.785 838.205 188.335C838.166 173.501 837.77 167.91 836.404 162.835C830.373 140.445 818.834 123.113 805.669 116.67C769.226 98.8338 639.363 88.2278 481.756 90.2158C397.464 91.2788 321.186 94.7977 302.825 98.4707C299.862 99.0637 299.674 99.2608 301.446 99.9158C306.471 101.775 330.287 101.897 383.256 100.335C544.907 95.5688 687.643 100.154 758.679 112.395C787.529 117.367 802.072 122.313 809.424 129.654C827.047 147.249 834.418 177.959 829.25 212.248C827.442 224.242 827.378 228.057 828.956 229.635C829.765 230.444 834.41 230.841 843.206 230.852C858.469 230.873 867.068 232.449 875.712 236.813C887.38 242.703 894.63 251.379 899.127 264.835C909.933 297.165 898.617 358.122 868.221 431.335C838.283 503.443 800.815 562.344 777.756 573.548C760.298 582.03 732.444 586.778 681.256 589.997C668.539 590.796 610.837 591.346 506.756 591.659C270.475 592.37 270.553 592.37 256.756 590.965C203.533 585.546 172.909 571.434 152.321 542.84C123.228 502.434 87.9787 420.085 63.0717 334.335C58.3737 318.163 57.5427 314.07 57.4907 306.835C57.4217 297.423 58.7847 291.967 62.4197 287.098C65.8857 282.457 67.6037 281.797 72.1467 283.359C78.2277 285.449 83.3277 291.29 89.0527 302.72C95.6047 315.8 100.85 321.771 109.549 326.054C115.736 329.1 116.929 329.335 126.234 329.335C143.302 329.335 153.353 323.956 159.756 311.393L163.256 304.526L163.336 288.93C163.38 280.353 163.493 272.372 163.586 271.196C163.923 266.95 166.894 264.921 175.256 263.223C185.159 261.213 191.814 257.937 195.311 253.352C204.131 241.788 201.948 226.495 190.206 217.589C187.483 215.524 179.153 210.659 171.694 206.778C164.234 202.897 156.248 198 153.947 195.897C149.906 192.203 149.784 191.913 150.395 187.453C150.743 184.913 150.689 182.835 150.274 182.835C149.859 182.835 148.01 184.16 146.165 185.78C140.117 191.091 131.216 192.292 125.654 188.548C115.853 181.95 119.721 171.677 132.696 169.843C140.283 168.771 143.014 167.075 146.822 161.07C153.847 149.992 157.256 134.913 156.482 118.335C156.2 112.285 155.667 106.596 155.297 105.694C154.701 104.236 155.752 104.052 164.68 104.052H174.735L171.667 106.918C166.121 112.099 170.034 116.303 175.848 111.411C177.533 109.993 180.676 108.552 182.833 108.207C186.081 107.687 186.756 107.183 186.756 105.275C186.756 103.808 185.989 102.726 184.647 102.3C182.796 101.713 183.146 101.283 187.508 98.7918C196.534 93.6368 201.775 85.2518 202.528 74.7598C203.155 66.0228 200.934 58.6548 195.412 51.1538C190.218 44.0978 183.975 39.8798 173.58 36.4028C164.798 33.4648 151.977 32.9518 145.459 35.2768ZM187.265 52.2598C194.15 59.2188 196.781 65.2118 196.739 73.8348C196.707 80.2788 194.291 86.1308 189.997 90.1618L186.985 92.9888L189.621 87.6638C191.762 83.3368 192.256 80.9298 192.256 74.8158C192.256 64.7338 188.217 56.1878 179.983 48.8488C174.528 43.9868 174.436 43.8268 177.774 44.9808C179.689 45.6428 183.96 48.9188 187.265 52.2598ZM208.756 114.24C208.756 114.463 210.799 115.842 213.296 117.305C220.856 121.736 227.005 127.835 223.912 127.835C223.447 127.835 220.49 125.58 217.341 122.824C211.205 117.454 206.398 114.527 205.383 115.542C203.493 117.431 205.736 120.994 214.661 130.284C222.279 138.214 225.395 142.32 228.161 148.07C230.138 152.181 231.752 155.948 231.748 156.44C231.738 157.661 226.862 159.835 224.133 159.835C222.91 159.835 220.569 158.707 218.931 157.329C215.507 154.448 212.756 154.904 212.756 158.353C212.756 161.256 217.991 165.783 221.583 165.986C226.204 166.246 230.209 165.688 231.53 164.6C233.586 162.906 234.021 164.307 233.995 172.55C233.964 182.484 231.223 189.988 225.161 196.729C218.064 204.622 209.771 208.13 192.256 210.646L186.256 211.508L189.974 213.171C195.397 215.598 202.156 215.222 213.877 211.841C226.562 208.182 227.795 208.156 231.715 211.454C235.868 214.949 237.924 219.173 237.917 224.196C237.907 230.476 236.224 233.75 229.508 240.558C226.131 243.98 223.678 247.09 224.057 247.469C224.436 247.848 226.508 247.577 228.662 246.866C236.074 244.42 238.283 245.903 254.87 264.462C263.226 273.812 265.749 277.242 264.896 278.095C262.935 280.056 263.609 283.693 266.256 285.427C268.528 286.916 268.972 286.923 271.133 285.507C273.416 284.011 273.722 284.131 278.883 288.544C308.811 314.133 326.131 325.234 342.631 329.404C348.267 330.828 349.177 330.843 350.489 329.53C353.088 326.931 350.477 324.701 340.781 321.24C330.116 317.432 320.943 312.38 308.256 303.329C285.674 287.219 262.784 266.341 246.318 246.835L239.143 238.335L241.574 233.994C246.694 224.856 243.662 210.35 235.053 202.791C231.462 199.638 231.445 199.586 233.152 196.972C243.308 181.427 242.915 158.987 232.179 141.335C228.714 135.637 228.586 135.12 229.643 131.071C231.22 125.028 231.086 124.222 228.036 121.394C223.973 117.626 208.756 111.98 208.756 114.24ZM196.45 122.367C193.115 125.301 187.273 125.671 182.582 123.245C179.838 121.826 179.345 121.818 177.995 123.167C172.435 128.728 190.442 133.763 198.442 128.885C202.576 126.364 204.329 123.231 202.703 121.271C201.045 119.274 199.697 119.51 196.45 122.367ZM582.256 193.854C564.989 197.308 544.191 210.653 521.225 233.014C505.171 248.646 494.436 261.519 489.493 271.066L485.729 278.335L496.993 278.957C509.819 279.665 518.221 281.447 529.814 285.918C542.708 290.89 557.208 301.51 565.794 312.27L570.162 317.743L579.709 308.501C584.96 303.418 590.745 298.648 592.565 297.901C595.79 296.578 595.974 296.642 599.885 300.439C602.092 302.582 609.084 313.052 615.424 323.706C621.764 334.36 628.37 344.592 630.104 346.443L633.256 349.81L640.756 347.794C655.812 343.748 666.511 342.512 687.256 342.422C698.256 342.374 708.493 342.681 710.006 343.104C712.635 343.839 712.756 343.716 712.756 340.314C712.756 335.69 712.192 334.637 689.678 297.232C661.603 250.586 650.687 234.964 634.292 217.966C614.898 197.858 599.021 190.501 582.256 193.854ZM819.264 251.413C817.763 253.381 815.24 257.544 813.658 260.663C810.406 267.074 810.239 266.798 812.256 258.35C813.922 251.372 812.689 248.666 810.371 254.213C806.633 263.161 801.699 280.414 799.88 290.901C797.821 302.775 794.223 329.905 793.325 340.335C792.618 348.542 793.778 353.444 796.318 352.985C799.108 352.481 799.501 351.425 800.245 342.421C801.119 331.853 804.034 315.031 808.286 296.018C811.704 280.736 813.328 275.544 820.147 258.107C822.132 253.031 823.756 248.643 823.756 248.357C823.756 246.837 821.674 248.253 819.264 251.413ZM399.424 262.932C390.263 269 380.296 282.015 375.224 294.533C373.564 298.63 372.269 300.429 370.815 300.655C368.29 301.046 368.123 302.436 370.525 303.064C371.962 303.44 372.227 304.38 371.934 308.062C371.645 311.696 371.095 312.815 369.165 313.695C366.013 315.131 366.019 317.209 369.174 316.606C371.294 316.201 371.718 316.644 372.622 320.207C373.19 322.442 373.564 324.285 373.455 324.303C373.346 324.32 371.916 325.022 370.279 325.861C365.334 328.394 362.756 333.245 362.756 340.014C362.756 355.329 347.96 381.943 335.331 389.344C328.968 393.073 316.826 395.835 306.796 395.835C294.475 395.835 272.648 393.953 266.495 392.36C261.276 391.009 261.265 391.011 263.605 392.91C266.661 395.39 274.657 397.764 282.506 398.521C288.458 399.095 288.756 399.251 288.756 401.788C288.756 403.254 289.319 405.168 290.006 406.043C293.514 410.505 299.461 408.109 298.373 402.671C297.701 399.308 297.147 399.372 313.756 400.9C336.178 402.965 347.653 406.537 353.594 413.303C356.51 416.624 356.844 417.555 356.252 420.718C355.101 426.865 351.782 436.057 348.445 442.335C343.346 451.928 337.251 453.602 319.256 450.35C314.159 449.429 304.296 448.892 292.078 448.87C264.271 448.819 250.452 446.408 240.714 439.907C234.719 435.906 231.928 431.054 225.426 413.335C222.398 405.085 218.908 395.86 217.67 392.835C208.07 369.379 204.692 361.674 198.821 349.835C186.758 325.509 170.769 302.406 166.426 303.027C162.923 303.529 163.39 306.184 168.172 312.951C179.544 329.046 184.057 336.269 190.593 348.835C201.514 369.833 211.796 395.239 219.249 419.646C227.082 445.296 227.225 443.842 216.541 447.325C206.292 450.668 208.06 451.48 225.483 451.435C236.758 451.406 243.823 451.905 250.256 453.184C256.715 454.468 267.444 455.219 288.256 455.846C311.327 456.54 319.096 457.131 326.256 458.737C339.904 461.799 343.323 461.574 347.303 457.354L350.586 453.872L355.291 455.954C358.307 457.288 363.743 458.36 370.438 458.941C376.182 459.44 382.228 460.545 383.875 461.397C385.522 462.248 388.156 465.058 389.729 467.64C400.035 484.566 402.664 487.038 406.581 483.494C408.178 482.048 408.428 482.08 409.549 483.875C411.195 486.511 413.381 486.343 416.137 483.369C417.755 481.623 418.735 481.214 419.489 481.968C421.215 483.694 424.446 482.008 426.102 478.518C426.949 476.733 428.081 472.549 428.617 469.218C429.153 465.888 430.281 461.514 431.123 459.499C432.464 456.29 433.08 455.835 436.083 455.835C440.228 455.835 442.208 453.772 441.349 450.348C440.61 447.405 440.879 447.33 444.833 449.375C450.001 452.047 470.282 452.754 561.756 453.447C678.096 454.328 722.491 452.529 735.256 446.413C738.693 444.767 742.912 443.813 748.756 443.363C763.05 442.261 781.492 439.886 784.433 438.768C785.965 438.185 791.051 437.04 795.736 436.223C805.973 434.438 808.404 432.835 800.873 432.835C797.967 432.835 795.739 432.498 795.923 432.085C796.106 431.672 797.915 427.96 799.942 423.835C807.485 408.486 812.249 389.564 811.575 377.632C811.211 371.203 810.901 370.354 807.951 367.718C804.181 364.35 802.372 364.162 798.199 366.706C794.713 368.832 790.372 376.648 783.309 393.516C780.733 399.666 777.912 405.291 777.04 406.016C776.039 406.848 771.353 407.532 764.355 407.868L753.256 408.4L757.756 410.596C761.334 412.341 764.059 412.796 771.054 412.813C779.232 412.833 780.019 412.654 782.234 410.265C783.544 408.851 787.17 401.664 790.292 394.293C793.414 386.923 797.302 378.789 798.932 376.219C801.568 372.063 802.061 371.712 803.397 373.048C807.949 377.6 801.951 404.663 792.474 422.335C788.352 430.021 784.044 432.291 770.756 433.78C754.237 435.631 750.704 435.489 748.598 432.888C746.385 430.155 746.301 426.068 748.241 415.335C750.21 404.437 750.183 382.606 748.189 373.84C744.309 356.783 734.177 351.938 702.256 351.876C678.081 351.829 631.836 356.443 608.035 361.277C596.867 363.545 596.805 363.547 595.035 361.58C591.624 357.79 583.469 353.854 579.006 353.844C576.669 353.839 574.756 354.179 574.756 354.6C574.756 355.021 577.069 356.187 579.896 357.191C586.587 359.568 594.116 366.607 596.459 372.678C599.703 381.085 597.485 398.606 591.753 409.84C587.693 417.799 586.411 415.669 584.792 398.27C583.559 385.021 581.851 380.16 576.252 373.963C572.946 370.303 572.019 369.835 568.074 369.835C565.627 369.835 562.766 369.375 561.716 368.814C560.437 368.129 556.258 368.107 549.032 368.747C534.92 369.997 498.339 368.819 496.578 367.057C492.725 363.203 503.249 357.773 516.195 356.934C525.605 356.325 528.755 355.078 528.757 351.963C528.758 349.658 533.98 339.247 538.1 333.335C540.017 330.585 541.419 328.168 541.216 327.964C541.013 327.759 538.785 328.8 536.265 330.277C531.216 333.236 525.601 340.244 523.725 345.93L522.514 349.6L514.111 350.684C501.137 352.359 497.893 353.661 491.984 359.566L486.713 364.835H474.538H462.364L467.06 361.857C471.793 358.856 473.033 356.262 470.245 355.193C469.415 354.874 464.577 356.694 459.495 359.237C442.355 367.815 427.756 367.383 427.756 358.296C427.756 355.807 428.658 354.253 431.693 351.511C435.852 347.753 442.104 345.414 456.256 342.32C463.775 340.676 469.756 338.436 469.756 337.265C469.756 336.98 466.475 336.851 462.465 336.979C453.41 337.268 452.369 336.705 453.207 331.967C454.725 323.376 454.92 319.599 453.899 318.578C453.135 317.814 452.229 318.898 450.754 322.34C446.597 332.037 436.563 340.621 425.433 344.002C411.234 348.315 396.713 344.936 387.775 335.24C383.521 330.625 379.177 322.4 378.582 317.835C378.275 315.484 378.559 315.317 383.362 315.038C386.171 314.874 390.671 315.119 393.362 315.582C397.979 316.377 398.239 316.585 397.948 319.258C397.779 320.816 397.874 322.701 398.16 323.446C398.919 325.423 401.48 324.073 402.167 321.332C402.807 318.783 410.784 312.833 413.556 312.838C416.264 312.843 434.926 316.628 438.582 317.914C441.003 318.765 442.207 318.784 443.009 317.982C444.297 316.694 440.475 314.877 430.854 312.202C426.638 311.03 425.024 310.167 425.728 309.463C426.293 308.898 426.756 307.625 426.756 306.635C426.756 304.452 424.024 304.318 421.315 306.367C418.539 308.466 414.756 308.275 414.756 306.035C414.756 305.045 415.257 303.734 415.869 303.122C417.306 301.685 416.153 299.835 413.818 299.835C412.739 299.835 411.493 301.056 410.756 302.835C409.582 305.669 407.868 306.614 406.458 305.204C406.111 304.856 406.486 303.631 407.291 302.481C409.212 299.739 409.16 296.835 407.191 296.835C406.331 296.835 404.471 298.208 403.059 299.887C398.374 305.454 394.658 302.438 397.135 295.08C397.698 293.406 397.453 292.656 396.18 292.168C393.848 291.273 391.756 294.345 391.756 298.664V302.11L386.057 301.441C382.923 301.072 380.167 300.579 379.932 300.344C378.575 298.987 386.647 284.46 393.352 276.194C396.461 272.362 405.014 265.835 406.927 265.835C407.383 265.835 407.756 269.16 407.756 273.224C407.756 282.495 409.279 284.75 416.321 285.906C423.519 287.087 433.001 287.041 432.252 285.828C431.164 284.068 425.928 281.816 420.557 280.797C417.698 280.255 415.006 279.254 414.573 278.573C414.141 277.892 413.78 273.938 413.771 269.785C413.762 265.266 413.274 261.753 412.556 261.035C410.321 258.8 404.361 259.661 399.424 262.932ZM448.164 270.085C442.433 274.59 434.776 284.018 434.763 286.585C434.747 289.552 439.325 287.454 445.22 281.794C452.642 274.668 452.583 274.615 453.463 289.062L454.058 298.835L457.157 298.832C458.861 298.83 464.756 297.971 470.256 296.923C501.736 290.924 523.522 295.133 543.571 311.085C552.843 318.463 559.129 326.773 566.076 340.835L572.252 353.335L572.573 348.858C573.041 342.317 572.14 338.823 567.739 330.125C558.455 311.776 537.351 295.567 515.756 290.199C505.351 287.613 481.978 287.794 469.131 290.56L460.006 292.525L459.321 284.088C458.573 274.86 457.779 272 455.268 269.49C453.057 267.279 451.576 267.403 448.164 270.085ZM193.256 287.03C192.156 287.654 190.925 288.653 190.521 289.25C188.381 292.411 191.164 296.835 195.292 296.835C199.361 296.835 201.298 290.52 198.185 287.406C196.338 285.56 195.906 285.527 193.256 287.03ZM391.006 306.94C395.172 308.145 397.756 309.426 397.756 310.285C397.756 311.385 395.662 311.665 387.756 311.618L377.756 311.559V308.364C377.756 303.179 377.938 303.16 391.006 306.94ZM409.423 316.502C407.976 317.948 408.889 319.651 411.456 320.296C412.941 320.668 419.128 323.192 425.206 325.904C431.283 328.616 436.856 330.835 437.589 330.835C441.037 330.835 437.082 327.872 425.958 322.12C414.43 316.16 410.948 314.976 409.423 316.502ZM377.679 332.397C380.68 338.053 388.208 344.932 395.064 348.282C398.011 349.722 403.844 351.325 408.554 351.989C415.767 353.007 417.172 353.541 419.304 356.074C420.653 357.677 421.756 359.817 421.756 360.83C421.756 361.843 422.057 363.455 422.424 364.412C423.033 366 422.482 366.096 416.174 365.503C406.529 364.596 396.809 361.645 386.167 356.393C371.508 349.159 365.885 341.26 369.884 333.519C371.224 330.927 373.823 327.835 374.663 327.835C374.991 327.835 376.348 329.888 377.679 332.397ZM222.145 332.263C221.15 334.857 222.485 338.362 230.8 354.985C240.276 373.927 243.381 378.835 245.889 378.835C248.705 378.835 248.2 375.814 244.298 369.335C242.396 366.176 238.684 358.585 236.048 352.466C233.412 346.346 230.131 339.088 228.756 336.337C226.212 331.247 223.238 329.415 222.145 332.263ZM260.956 343.035C260.296 343.695 259.756 345.405 259.756 346.835C259.756 349.979 261.426 351.835 264.256 351.835C267.086 351.835 268.756 349.979 268.756 346.835C268.756 343.691 267.086 341.835 264.256 341.835C263.101 341.835 261.616 342.375 260.956 343.035ZM312.786 348.779C309.311 355.272 319.319 361.484 323.348 355.335C324.865 353.019 324.865 352.651 323.348 350.335C322.447 348.96 320.933 347.829 319.983 347.821C319.033 347.814 317.282 347.546 316.092 347.227C314.534 346.809 313.607 347.244 312.786 348.779ZM383.256 426.67C388.206 427.821 396.702 429.459 402.137 430.31C407.571 431.161 413.882 432.682 416.161 433.69C420.253 435.5 433.26 446.664 432.345 447.58C432.085 447.839 427.855 445.753 422.946 442.943C414.916 438.348 411.756 437.024 411.756 438.253C411.756 438.483 411.525 439.274 411.242 440.01C410.96 440.746 412.815 443.596 415.365 446.342C417.915 449.088 420.621 452.783 421.378 454.553C422.957 458.24 423.197 468.605 421.756 470.835C420.978 472.039 420.784 472.06 420.771 470.943C420.763 470.177 419.849 466.506 418.741 462.784C416.606 455.617 409.829 446.61 405.772 445.549C403.084 444.846 403.21 445.358 406.863 449.97C408.572 452.128 410.822 456.135 411.863 458.875C413.804 463.983 414.445 474.291 412.882 475.257C412.402 475.554 411.225 472.993 410.267 469.566C407.212 458.635 402.766 452.288 396.506 449.923C392.958 448.583 392.888 450.015 396.304 454.074C400.063 458.541 402.469 463.755 403.572 469.821C405.408 479.923 402.895 480.261 399.826 470.326C397.153 461.672 395.499 458.695 391.334 455.038C386.816 451.07 382.256 449.847 371.956 449.841C360.946 449.833 357.756 448.277 357.756 442.915C357.756 440.787 358.617 436.186 359.669 432.69C360.722 429.195 361.873 424.915 362.228 423.179L362.874 420.023L368.565 422.301C371.695 423.553 378.306 425.52 383.256 426.67ZM330.956 431.035C329.373 432.618 329.411 437.804 331.006 437.946C337.438 438.515 340.709 436.222 338.955 432.372C337.686 429.588 333.16 428.831 330.956 431.035ZM752.006 616.335C760.794 636.216 767.321 653.483 776.766 681.835C784.655 705.519 785.634 709.665 783.638 710.929C781.332 712.389 780.878 712.004 779.696 707.585C777.903 700.887 770.053 680.826 754.892 644.196C747.183 625.573 740.421 608.307 739.866 605.829C738.897 601.502 739.538 595.614 741.288 592.784C741.822 591.919 742.478 592.783 743.287 595.416C743.949 597.571 747.872 606.985 752.006 616.335ZM227.995 597.505C228.962 599.161 230.033 603.189 230.374 606.458C231.169 614.058 228.823 621.067 213.079 658.136C199.994 688.945 193.756 704.974 193.756 707.79C193.756 710.36 192.024 711.302 190.153 709.75C189.017 708.807 188.81 707.474 189.326 704.423C190.563 697.101 196.791 678.845 205.722 656.367C218.208 624.938 225.094 603.528 224.477 598.054C223.914 593.054 225.272 592.842 227.995 597.505Z" fill="black"/>
</svg>
