<svg width="778" height="766" viewBox="0 0 778 766" fill="none" xmlns="http://www.w3.org/2000/svg">
<path fill-rule="evenodd" clip-rule="evenodd" d="M593.537 2.088C590.135 4.764 587.922 9.065 587.922 13C587.922 26.129 607.577 31.318 614.286 19.96C619.578 11.002 612.038 0 600.607 0C597.644 0 595.319 0.686997 593.537 2.088ZM609.457 12.057C610.708 14.081 608.873 17.974 605.957 19.482C599.159 22.997 596.611 19.9 601.511 14.077C604.105 10.994 608.163 9.96301 609.457 12.057ZM304.145 77.557C302.51 78.702 301.922 80.12 301.922 82.92C301.922 90.854 311.017 94.996 316.467 89.545C320.457 85.555 319.577 81.393 313.949 77.646C310.842 75.577 307.021 75.542 304.145 77.557ZM310.467 82.455C313.316 85.303 313.661 87.289 311.226 86.82C309.245 86.438 305.137 80 306.875 80C307.501 80 309.117 81.105 310.467 82.455ZM485.753 90.023C473.805 92.039 460.25 97.719 450.619 104.745L445.815 108.249L443.616 106.182C442.406 105.045 438.717 102.852 435.419 101.308C429.875 98.712 428.516 98.502 417.422 98.531C407.031 98.557 404.448 98.913 398.16 101.185C382.234 106.938 366.2 119.95 357.972 133.799C346.02 153.917 337.421 182.399 330.502 224.789C326.641 248.44 324.694 269.796 325.075 284.306C325.484 299.865 326.754 303.088 333.945 306.829C338.077 308.978 339.308 309.12 349.922 308.673C359.66 308.263 365.099 307.267 385.422 302.173C412.837 295.302 422.027 293.451 433.694 292.449C438.244 292.058 442.197 291.364 442.479 290.907C442.762 290.45 441.227 289.176 439.07 288.075C434.087 285.533 429.077 278.705 423.398 266.718C417.96 255.238 417.707 253.59 422.6 261.531C433.195 278.726 448.118 292.125 462.198 297.089C464.982 298.071 465.801 298.825 465.313 299.96C461.648 308.494 461.28 311.563 463.069 318.67C464.509 324.39 470.481 331 474.208 331C478.186 331 478.255 329.491 474.411 326.56C472.491 325.095 470.245 322.592 469.421 320.998C467.3 316.897 467.553 309.813 469.999 304.777L472.077 300.5L480.871 301.412L489.666 302.325L487.69 306.791C483.685 315.846 485.451 324.386 492.018 327.721C495.352 329.413 495.481 327.912 492.393 323.362C489.295 318.797 489.499 316.747 494.025 306.927C496.828 300.847 497.46 300.157 501.259 299.036C505.822 297.689 510.53 295.072 515.922 290.885C517.847 289.391 522.347 287.291 525.922 286.22C532.034 284.389 536.039 283.707 556.856 280.953C572.539 278.878 577.922 274.943 577.922 265.554C577.922 247.847 564.5 207.404 551.425 185.712L547.936 179.923L552.08 174.712C558.766 166.304 561.145 160.081 561.686 149.587C562.094 141.671 561.817 139.498 559.539 132.731C553.686 115.346 541.671 101.757 525.799 94.571C515.2 89.773 498.486 87.874 485.753 90.023ZM524.922 102.23C534.26 106.654 545.464 118.067 550.218 128C558.269 144.819 556.59 159.957 545.341 171.983C542.744 174.759 540.444 176.856 540.23 176.641C540.016 176.427 540.724 174.733 541.804 172.876C547.499 163.082 548.486 145.608 544.007 133.854C539.449 121.891 530.577 110.657 519.422 102.724C513.944 98.828 513.074 97.898 515.422 98.448C517.072 98.835 521.347 100.537 524.922 102.23ZM277.672 100.572C272.273 103.501 274.932 107.141 281.87 106.32C286.923 105.721 289.922 107.431 289.922 110.911C289.922 112.758 286.133 115 283.01 115C280.138 115 276.241 111.346 275.578 108.031C274.828 104.281 273.184 104.106 272.287 107.681C270.895 113.229 277.014 119.244 284.213 119.403C289.454 119.518 293.287 117.689 294.812 114.343C299.195 104.722 287.437 95.275 277.672 100.572ZM147.219 110.959C146.007 111.477 143.815 113.715 142.348 115.933C140.04 119.42 139.736 120.751 140.1 125.778C140.582 132.453 142.638 135.85 148.058 138.932C154.621 142.664 162.478 141.341 167.839 135.603C171.204 132.001 171.825 123.759 169.063 119.366C165.672 113.973 160.417 110.692 154.6 110.335C151.752 110.161 148.431 110.442 147.219 110.959ZM672.922 118C672.922 119.65 673.392 121 673.967 121C675.998 121 679.922 125.943 679.922 128.5C679.922 129.944 678.793 132.22 677.372 133.641C674.291 136.722 670.897 136.261 666.607 132.18C662.784 128.542 663.521 123.817 668.624 119.25C672.078 116.159 672.137 116.002 669.839 116.035C661.28 116.161 655.86 128.008 660.65 136.117C662.639 139.483 669.2 143.001 673.488 142.998C680.545 142.995 686.922 136.46 686.922 129.233C686.922 121.916 681.512 115 675.787 115C673.27 115 672.922 115.365 672.922 118ZM151.794 120.434C155.89 122.552 157.258 124.671 157.108 128.662C156.853 135.443 152.763 136.995 147.919 132.15C145.061 129.293 143.198 123.33 144.281 120.508C145.01 118.607 148.201 118.576 151.794 120.434ZM712.672 143.187C711.046 143.766 709.922 144.906 709.922 145.976C709.922 146.972 709.247 148.045 708.422 148.362C705.202 149.597 707.179 155.479 711.606 157.837C717.904 161.191 725.322 157.819 725.322 151.602C725.322 145.315 718.827 140.995 712.672 143.187ZM716.922 150.368C716.922 151.055 716.288 152.485 715.512 153.546C714.129 155.437 714.064 155.438 712.012 153.582C709.147 150.988 709.392 149.201 712.672 148.781C715.977 148.357 716.922 148.71 716.922 150.368ZM457.729 177.163C460.108 179.112 465.383 182.46 469.45 184.603L476.845 188.5L476.272 195.5C475.518 204.718 477.124 212.901 481.397 221.601C485.338 229.626 489.606 233.273 496.97 234.908C501.473 235.908 505.922 235.465 505.922 234.017C505.922 233.605 503.302 232.313 500.1 231.145C496.66 229.891 492.735 227.483 490.508 225.261L486.737 221.5L491.747 220.98C494.58 220.686 497.64 219.66 498.791 218.618C501.451 216.211 503.093 207.833 502.145 201.5C501.478 197.04 501.128 196.5 498.91 196.5C496.478 196.5 496.422 196.673 496.408 204.113C496.393 212.344 495.201 215 491.522 215C485.774 215 481.915 208.88 481.937 199.8C481.959 190.9 482.254 190.631 489.999 192.456C498.224 194.395 513.607 194.398 521.817 192.463C525.334 191.634 528.356 191.1 528.533 191.277C529.241 191.985 531.869 211.079 532.487 220C533.628 236.483 530.151 256.448 523.834 269.685C520.161 277.381 512.212 286.219 505.501 290.068C499.208 293.678 498.31 293.698 497.463 290.25C495.994 284.275 493.206 281.901 490.024 283.916C488.84 284.666 488.886 285.453 490.325 289.049C491.33 291.561 491.658 293.664 491.126 294.196C490.632 294.69 486.901 294.96 482.835 294.797L475.442 294.5L475.363 287.322C475.296 281.28 474.857 279.501 472.589 276.072C469.667 271.658 466.647 270.777 464.997 273.86C464.23 275.294 464.565 276.483 466.462 279.054C468.289 281.531 468.922 283.652 468.922 287.303C468.922 292.161 468.891 292.209 466.172 291.539C460.819 290.22 450.669 283.726 443.731 277.181C431.864 265.987 423.67 252.59 417.912 234.971C415.335 227.082 411.493 210.037 412.163 209.463C412.305 209.34 414.744 208.075 417.581 206.65C420.419 205.224 426.193 200.857 430.413 196.944C434.633 193.031 439.61 189.193 441.472 188.415C445.446 186.754 451.685 186.579 455.479 188.021C457.387 188.747 458.564 188.712 459.544 187.899C463.524 184.595 457.69 181 448.347 181C443.354 181 442.795 180.8 443.468 179.25C443.885 178.288 444.891 174.933 445.702 171.796L447.177 166.091L450.29 169.856C452.002 171.926 455.35 175.214 457.729 177.163ZM656.256 178.773C653.013 180.836 648.922 187.48 648.922 190.683C648.922 195.37 652.633 199 657.426 199C664.783 199 669.922 194.116 669.922 187.124C669.922 183.945 669.324 182.674 666.845 180.589C663.813 178.037 658.771 177.172 656.256 178.773ZM655.379 183.931C655.696 184.443 655.497 185.144 654.938 185.49C654.379 185.835 653.922 185.416 653.922 184.559C653.922 182.802 654.522 182.544 655.379 183.931ZM465.029 202.371C464.172 203.404 464.266 205.361 465.411 210.295C467.726 220.278 465.12 224.705 458.839 221.457C455.839 219.905 450.489 213.362 449.39 209.899C448.644 207.55 444.119 207.324 443.249 209.591C442.41 211.776 445.113 217.099 449.56 222.021C456.821 230.058 463.811 231.311 469.522 225.6C472.415 222.707 472.922 221.506 472.922 217.543C472.922 212.384 471.171 204.187 469.655 202.25C468.373 200.612 466.447 200.662 465.029 202.371ZM407.353 218.095C407.733 221.448 409.073 227.748 410.332 232.095L412.622 240H409.732C402.44 240 392.483 231.291 390.342 223.04C388.63 216.44 389.232 215.019 393.779 214.924C395.783 214.882 398.997 214.241 400.922 213.5C406.382 211.398 406.614 211.564 407.353 218.095ZM467.933 249.487C465.473 252.451 469.972 260.423 475.807 263.441C480.58 265.909 489.375 265.868 490.332 263.373C491.352 260.715 489.132 259.178 484.379 259.249C479.391 259.325 477.116 257.787 473.28 251.75C470.664 247.633 469.781 247.26 467.933 249.487ZM208.685 267.565C205.611 269.233 202.92 273.735 202.926 277.2C202.931 280.697 206.319 285.507 209.787 286.944C214.099 288.73 219.239 287.529 222.883 283.885C225.368 281.4 225.922 280.026 225.922 276.346C225.922 270.028 221.929 265.983 215.749 266.04C213.369 266.062 210.19 266.748 208.685 267.565ZM219.001 274.595C220.104 275.924 220.083 276.618 218.874 278.747C216.793 282.41 214.743 283.377 210.676 282.614L207.104 281.943L208.663 278.722C209.52 276.95 210.66 274.938 211.194 274.25C212.569 272.483 217.426 272.698 219.001 274.595ZM436.422 317.404C412.752 324.922 386.178 352.59 362.43 394.443C332.321 447.506 318.619 508.701 328.42 546.332C332.203 560.856 341.29 572.671 353.052 578.361L359.94 581.692L351.181 583.96C329.808 589.493 302.631 601.379 285.422 612.72C262.537 627.803 250.829 642.316 245.854 661.766C240.78 681.604 245.637 699.592 259.296 711.549C264.09 715.746 283.193 726.22 290.822 728.835L294.222 730L290.203 732.911C281.864 738.952 279.153 746.35 282.751 753.25L284.706 757H275.724C267.722 757 266.552 756.764 264.99 754.836C263.275 752.718 263.014 752.698 252.83 753.879C235.416 755.9 227.504 755.819 225.036 753.595C221.783 750.663 222.249 746.031 226.172 742.308C232.165 736.621 235.275 735.656 245.454 736.324C250.46 736.653 255.319 737.215 256.25 737.573C259.287 738.738 257.004 735.214 253.199 732.862C248.431 729.915 237.698 729.27 228.672 731.388C212.122 735.271 200.816 744.8 202.253 753.655L202.796 757L194.109 756.995L185.422 756.99L188.422 754.585L191.422 752.18L191.28 739.84C191.192 732.153 190.144 721.09 188.501 710.5C187.05 701.15 184.504 684.05 182.843 672.5C181.182 660.95 179.372 650.415 178.82 649.088C177.875 646.816 177.719 646.775 176.12 648.381C173.492 651.02 174.175 660.779 179.277 693.5C184.632 727.85 186.281 742.088 185.38 746.19C184.496 750.216 178.609 752.793 166.93 754.267C155.337 755.73 150.559 754.702 150.095 750.643C149.915 749.071 150.3 746.501 150.951 744.931C152.452 741.305 161.262 733.005 163.629 732.985C164.615 732.977 168.122 732.121 171.422 731.082C177.276 729.24 177.349 729.174 174.422 728.361C172.772 727.903 169.125 727.544 166.317 727.564L161.211 727.6L160.615 713.55C160.288 705.823 159.13 694.1 158.043 687.5C156.956 680.9 155.531 671.801 154.877 667.28C153.737 659.408 151.854 654.735 150.404 656.185C149.61 656.978 151.532 682.791 153.019 691.314C153.577 694.512 154.346 704.253 154.728 712.961L155.422 728.794L150.422 730.392C142.974 732.772 135.094 737.671 132.884 741.294C130.229 745.649 130.423 749.253 133.511 752.923L136.1 756H122.934H109.768L112.738 753.03C117.481 748.287 118.433 742.414 118.339 718.5C118.256 697.342 116.074 672.674 113.625 665.199C112.945 663.123 111.757 661.5 110.918 661.5C108.657 661.5 108.516 669.305 110.484 685.5C112.647 703.303 112.972 735.359 111.065 742.78C109.532 748.746 107.843 750.033 99.1229 751.878C88.0529 754.221 81.2969 752.555 77.3319 746.502C75.8999 744.318 75.8129 743.307 76.7779 740.085C77.7789 736.746 78.6549 735.944 83.6749 733.766C86.8379 732.395 90.9999 730.306 92.9239 729.124C96.2639 727.073 96.3189 726.948 94.1499 726.366C92.1169 725.82 91.9589 725.372 92.6499 722.128C93.9119 716.201 93.1149 693.878 90.8779 672.5C87.8439 643.505 87.2939 618.466 89.3619 603.5C92.8139 578.511 92.4769 574.325 88.0749 587.5C83.0459 602.549 81.6069 632.968 84.4339 664.5C87.8659 702.794 88.2849 710.508 87.3539 718.289L86.4219 726.077L78.2079 728.911C60.8369 734.905 52.8539 743.372 57.0849 751.316C57.7249 752.517 58.9569 754.022 59.8229 754.66C61.1359 755.628 60.7369 755.926 57.4089 756.457C55.2159 756.808 49.1469 758.076 43.9219 759.275L34.4219 761.456L72.9219 762.208C94.0969 762.621 159.572 763.457 218.422 764.065C277.272 764.673 332.397 765.39 340.922 765.658C358.058 766.198 371.333 765.132 392.493 761.519C414.634 757.738 419.185 757.591 442.922 759.897C499.073 765.351 544.853 765.354 627.922 759.91C646.265 758.708 679.935 757.541 712.392 756.984C742.076 756.474 768.401 755.763 770.892 755.404C777.921 754.391 778.821 753.466 774.321 751.877C771.193 750.772 759.644 750.5 715.922 750.5C662.061 750.5 661.504 750.48 668.422 748.754C691.33 743.041 708.922 732.722 708.922 724.999C708.922 719.324 699.356 712.188 688.419 709.704L682.936 708.459L688.679 705.077C704.885 695.536 717.597 683.468 722.997 672.499C727.066 664.235 728.07 653.46 725.572 644.868C721.074 629.394 703.954 613.027 679.422 600.749C667.525 594.794 640.096 583.93 626.717 579.873L616.011 576.627L619.91 572.397C624.715 567.185 629.185 558.491 632.028 548.829C635.082 538.452 635.833 510.141 633.481 494.1C626.885 449.127 602.868 393.511 575.624 360.125C556.203 336.326 534.357 318.586 521.801 316.418L518.422 315.835L520.821 317.784C522.604 319.233 522.861 319.856 521.821 320.209C520.968 320.498 522.765 322.174 526.422 324.502C541.486 334.089 564.779 355.924 576.026 371C599.43 402.374 620.912 454.806 626.358 493.852C630.992 527.083 626.344 553.082 613.268 567.061C607.164 573.586 604.157 575.096 597.054 575.196C581.509 575.417 556.868 556.013 543.891 533.331C538.219 523.418 535.157 515.574 532.162 503.284C530.784 497.628 529.32 493 528.91 493C527.04 493 525.668 499.376 526.234 505.436C527.292 516.768 533.352 531.765 542.325 545.253L544.156 548.006L538.428 550.54C521.137 558.187 500.866 561.46 475.422 560.714C459.661 560.252 455.929 559.805 445.422 557.116C428.316 552.739 424.38 551.38 424.717 549.966C424.879 549.286 426.373 546.751 428.036 544.334C430.748 540.393 433.58 534.426 442.908 513C446.476 504.807 448.353 495.357 447.518 489.793C446.686 484.246 441.536 475.237 438.374 473.796C434.23 471.908 434.236 472.607 438.443 482.477L440.139 486.455L435.78 482.469C433.383 480.277 430.155 477.499 428.607 476.297C426.12 474.365 425.93 473.842 426.976 471.805C429.571 466.749 436.487 457.061 437.522 457.032C438.127 457.014 440.481 455.653 442.753 454.008C446.521 451.278 447.929 449.502 453.402 440.577L455.195 437.654L456.887 443.077C460.813 455.657 462.44 456.761 478.422 457.686C493.999 458.586 511.942 455.7 513.936 451.973C515.475 449.099 515.721 430.808 514.228 430.287C512.915 429.829 511.462 434.529 510.436 442.548C509.394 450.69 509.909 450.453 493.222 450.478C472.434 450.509 468.365 448.744 465.606 438.5C465.156 436.831 466.25 435.921 472.215 433C476.147 431.075 481.739 427.225 484.643 424.443C489.113 420.162 489.922 418.832 489.922 415.765C489.922 411.897 487.844 408.989 485.101 409.017C484.177 409.027 480.064 409.906 475.96 410.972C471.856 412.038 468.307 412.718 468.073 412.485C467.84 412.251 472.338 407.209 478.07 401.28C484.062 395.082 489.278 388.708 490.343 386.283C492.108 382.267 492.113 381.941 490.46 379.418C488.864 376.982 488.292 376.805 483.36 377.214L477.996 377.658L481.035 375.417C487.161 370.897 488.344 367.422 484.922 364C482.216 361.294 475.941 361.422 468.878 364.328L463.334 366.609L468.128 361.988C470.765 359.447 472.922 356.845 472.922 356.207C472.922 355.568 471.788 354.303 470.402 353.395C467.042 351.194 461.08 351.919 453.1 355.501C449.679 357.036 446.727 358.114 446.539 357.896C446.351 357.678 445.956 355.609 445.661 353.298L445.125 349.097L452.774 346.596C470.585 340.774 486.207 339.092 504.832 340.991C518.892 342.424 523.211 341.73 518.685 338.764C514.392 335.952 508.654 334.903 494.422 334.33C482.694 333.858 478.475 334.119 468.422 335.936C455.392 338.292 443.905 341.88 439.934 344.834C437.902 346.346 437.364 347.708 437.116 351.97C436.947 354.867 437.272 358.565 437.838 360.188C438.781 362.893 438.424 363.732 433.526 370.319C425.05 381.719 423.423 385.24 415.87 408.521C408.649 430.781 401.712 446.6 395.375 455.257L391.892 460.014L386.157 459.467C383.003 459.166 378.748 458.709 376.703 458.453L372.983 457.986L365.306 473.243C361.084 481.634 356.625 490.234 355.396 492.353C353.111 496.295 353.137 500 355.449 500C356.845 500 361.364 493.113 369.977 477.856L375.422 468.213L382.999 475.452C399.436 491.155 417.291 500.134 432.571 500.381C436.61 500.447 439.916 500.586 439.918 500.69C439.92 500.795 438.753 504.17 437.323 508.19C423.175 547.984 381.184 583.729 359.732 574.24C349.188 569.576 338.209 553.764 333.853 536.97C331.888 529.392 331.717 526.868 332.229 513C333.823 469.839 354.184 414.764 383.756 373.617C397.68 354.243 410.382 342.031 430.422 328.747C437.022 324.373 441.297 321.093 439.922 321.459C438.487 321.841 439.552 320.828 442.422 319.08L447.422 316.034L443.922 316.084C441.997 316.111 438.622 316.705 436.422 317.404ZM525.06 341.552C522.425 344.901 521.388 353.681 522.652 361.933C523.206 365.545 523.597 368.583 523.522 368.684C523.448 368.786 520.469 367.462 516.904 365.743C505.975 360.471 494.922 360.87 494.922 366.535C494.922 369.606 496.812 371.512 506.078 377.781C510.117 380.514 514.322 383.782 515.422 385.044L517.422 387.339L515.422 386.517C504.456 382.009 495.627 380.695 493.122 383.2C488.863 387.459 495.861 394.823 514.172 405.353C516.784 406.855 518.922 408.326 518.922 408.622C518.922 408.918 514.425 408.841 508.929 408.452C497.93 407.672 495.922 408.334 495.922 412.738C495.922 416.733 502.154 421.484 513.838 426.396C524.314 430.8 524.456 430.905 527.739 436.673C532.153 444.428 536.151 448.44 543.669 452.661C549.626 456.006 549.988 456.43 551.494 461.834C552.362 464.95 553.533 468.993 554.097 470.817C554.66 472.641 554.964 474.233 554.772 474.354C549.652 477.572 539.845 485.861 538.536 488.076C536.54 491.455 534.312 491.117 535.985 487.689C536.573 486.485 540.281 482.494 544.224 478.82C548.168 475.145 551.107 471.852 550.755 471.5C548.665 469.409 533.549 481.256 531.232 486.8C529.988 489.778 530.006 490.479 531.384 492.582C532.246 493.898 534.857 495.993 537.187 497.237C540.978 499.263 542.783 499.495 554.422 499.455C564.562 499.421 569.207 498.929 575.534 497.219C593.834 492.275 608.586 484.163 613.975 476.079C620.804 465.833 614.751 457 600.902 457C596.639 457 595.922 457.28 595.922 458.941C595.922 461.409 596.61 461.803 603.06 463.026C609.523 464.252 612.524 466.586 606.422 465.641C604.222 465.301 600.138 465.017 597.347 465.011L592.271 465L588.451 453.75C580.453 430.198 569.376 407.392 557.065 389.131C544.41 370.36 543.035 367.774 538.913 354.971C536.651 347.947 534.005 341.48 533.032 340.6C530.456 338.268 527.351 338.639 525.06 341.552ZM534.307 359.478C538.364 371.495 540.723 375.872 552.726 393.652C560.712 405.483 572.318 428.421 578.8 445.188C583.81 458.145 590.112 479.679 589.713 482.471C589.493 484.006 587.595 485.152 581.922 487.176C571.009 491.07 563.85 492.502 562.91 490.98C562.497 490.312 561.615 486.396 560.951 482.279C560.287 478.162 558.884 472.295 557.833 469.24C555.237 461.695 555.338 457.638 558.172 455.723L560.422 454.203L557.422 453.568C551.629 452.343 541.868 446.755 538.309 442.626C533.472 437.016 531.392 432.946 532.887 432.021C534.226 431.194 531.335 429.116 525.922 427.015C514.669 422.648 501.656 414.941 503.094 413.497C503.464 413.126 506.925 413.312 510.786 413.911C520.651 415.442 526.486 415.293 528.313 413.466C531.16 410.619 528.208 407.486 513.616 397.869C505.894 392.78 500.102 388.44 500.744 388.226C503.397 387.342 518.895 393.809 526.422 398.941C530.025 401.398 531.507 401.523 532.308 399.437C533.797 395.555 522.188 382.069 510.256 373.82C506.222 371.032 502.922 368.523 502.922 368.245C502.922 367.061 511.813 368.909 516.276 371.021C518.946 372.284 524.939 376.847 529.594 381.159C534.249 385.472 538.507 389 539.057 389C540.848 389 538.829 384.641 534.287 378.704C529.355 372.257 527.922 367.153 527.922 356.03C527.922 349.814 528.356 348 529.843 348C530.167 348 532.175 353.165 534.307 359.478ZM455.062 364.476C448.14 369.571 445.322 373.426 440.917 383.822C438.787 388.848 437.909 392.386 438.118 395.103L438.422 399.062L444.422 391.368C451.59 382.177 457.989 376.881 467.394 372.355C474.216 369.072 477.922 368.18 477.922 369.82C477.922 370.27 474.504 372.839 470.327 375.528C466.15 378.217 460.786 382.582 458.407 385.228C453.245 390.969 448.911 399.241 449.628 401.984C450.12 403.864 450.32 403.828 453.9 401.228C455.965 399.728 460.078 396.529 463.039 394.12C468.911 389.342 480.454 383.198 481.532 384.276C481.903 384.647 478.09 389.255 473.06 394.517C464.11 403.879 457.95 412.737 457.931 416.271C457.913 419.684 462.219 420.492 470.709 418.667C479.792 416.715 479.922 416.706 479.922 417.967C479.922 418.5 474.319 421.671 467.471 425.015C454.337 431.429 451.604 433.746 447.407 442.03C444.169 448.42 437.829 453.635 430.457 455.973C425.216 457.636 424.86 457.895 427.75 457.944L431.078 458L427.472 462.213C423.619 466.714 419.098 475.528 416.38 483.84L414.711 488.942L411.566 487.327C406.524 484.736 396.692 477.978 393.236 474.727L390.049 471.731L394.794 465.866C405.633 452.471 412.089 438.981 422.436 408.112C431.747 380.333 438.276 370.497 452.313 363.103C460.8 358.632 462.111 359.287 455.062 364.476ZM19.5889 431.667C18.1089 433.147 19.1669 436.888 23.1909 444.394C27.6929 452.792 31.4119 456.517 34.2209 455.439C36.8329 454.437 36.4669 447.818 33.6069 444.327C32.3329 442.772 30.3009 439.859 29.0889 437.853C26.0909 432.89 21.4119 429.843 19.5889 431.667ZM90.6189 443.499C83.1289 445.559 75.4259 450.789 67.0569 459.5C44.1599 483.332 30.9619 517.993 32.1009 551.302C32.4629 561.853 32.8769 564.278 35.1699 569.26C39.9339 579.613 47.8679 584.396 56.3379 582.022C69.0109 578.471 82.8969 560.147 87.9819 540.265C90.8769 528.947 90.3709 520.345 87.0459 524.351C86.4389 525.082 84.1439 531.264 81.9459 538.09C78.3769 549.171 72.4559 561.867 71.3659 560.777C71.1399 560.552 71.4069 558.822 71.9579 556.934C75.4059 545.11 74.8799 522.862 70.7549 506C68.5579 497.022 63.9299 484.469 61.3849 480.585C59.9299 478.364 60.1409 477.929 66.4529 470.111C77.9049 455.926 88.2259 449.361 100.717 448.314C109.121 447.609 118.958 449.222 127.766 452.748C141.994 458.444 161.23 474.11 173.308 489.839C177.863 495.771 188.377 512.9 193.613 522.919C195.843 527.187 195.922 527.237 195.922 524.38C195.922 500.7 160.216 458.724 130.274 447.203C116.717 441.987 101.344 440.551 90.6189 443.499ZM2.92691 465.894C0.167907 466.661 -1.00009 469.812 1.01291 471.056C3.38391 472.522 18.4969 473.298 20.7879 472.072C23.4479 470.648 23.5559 467.41 20.9879 466.035C18.8539 464.893 6.85891 464.799 2.92691 465.894ZM144.224 489.067C150.34 505.327 157.776 516.051 170.794 527.389C180.919 536.206 195.922 551.477 195.922 552.965C195.922 553.405 194.165 555.521 192.018 557.669C187.418 562.268 185.252 568.64 186.79 573.05C187.664 575.558 187.519 575.993 185.605 576.601C182.039 577.732 167.517 577.098 159.789 575.472C142.714 571.88 128.241 565.693 112.144 555.104C102.357 548.665 99.9219 547.821 99.9219 550.865C99.9219 553.94 103.554 557.628 112.336 563.472C123.353 570.802 132.971 575.139 148.011 579.559C179.087 588.69 187.236 593.001 204.586 609.491C211.826 616.372 221.644 626.915 226.403 632.92C231.163 638.925 235.767 644.11 236.633 644.443C247.452 648.594 213.731 606.175 193.922 590.714C190.347 587.924 187.011 585.289 186.509 584.858C185.357 583.869 189.803 582.149 196.922 580.83C206.763 579.007 210.925 574.848 210.918 566.846C210.915 562.586 207.947 556 206.032 556C205.526 556 203.894 553.922 202.406 551.383C199.332 546.138 188.496 535.116 173.848 522.337C166.635 516.044 164.039 513.184 164.519 512.059C166.354 507.752 166.095 500.274 163.938 495.259C161.517 489.632 159.367 488.126 157.055 490.439C155.705 491.788 155.785 492.436 157.797 496.463C159.137 499.148 159.923 502.298 159.736 504.238C159.436 507.35 159.14 507.041 153.268 497.5C149.883 492 145.908 486.375 144.434 485L141.754 482.5L144.224 489.067ZM254.419 497.303C248.605 503.117 247.769 507.929 246.912 540.5C246.17 568.737 245.483 575.519 241.446 594.5C240.627 598.35 239.963 602.4 239.971 603.5L239.986 605.5L241.567 603.5C244.541 599.74 248.957 589.331 250.514 582.412C251.607 577.552 252.301 566.434 252.85 544.956C253.365 524.817 254.034 513.66 254.812 512.206C257.812 506.6 267.662 512.319 271.876 522.114C274.671 528.613 276.329 548.05 275.426 563.737C274.673 576.81 275.146 579.485 277.945 577.987C280.78 576.47 281.911 570.762 281.906 558C281.896 534.076 278.949 512.77 274.337 503.274C271.171 496.757 267.479 494 261.918 494C258.504 494 257.107 494.615 254.419 497.303ZM132.122 497.2C130.438 498.884 130.549 499.343 133.922 504.661C135.572 507.263 136.922 510.42 136.922 511.677C136.922 517.312 125.459 514.781 119.511 507.833C113.826 501.191 109.088 504.596 114.373 511.525C118.042 516.335 124.813 520.03 131.158 520.685C135.918 521.176 136.834 520.945 139.706 518.529C142.181 516.446 142.922 515.029 142.922 512.379C142.922 508.047 141.01 503.431 137.485 499.25C134.46 495.663 133.881 495.441 132.122 497.2ZM199.39 564.272C199.066 565.563 197.738 567.942 196.438 569.56C194.373 572.131 193.99 572.28 193.391 570.748C192.451 568.342 193.461 564.856 196.053 561.56C197.895 559.219 198.362 559.035 199.104 560.36C199.585 561.22 199.714 562.981 199.39 564.272ZM586.422 623.397C577.622 626.278 565.227 631.117 558.877 634.15C538.992 643.651 523.799 654.63 525.262 658.443C526.038 660.467 526.522 660.654 551.422 668.552C586.594 679.708 606.922 688.449 606.922 692.415C606.922 693.483 604.451 692.708 597.672 689.511C586.877 684.421 554.312 673.204 527.922 665.485C479.993 651.468 418.676 638.213 386.78 634.976C374.939 633.774 343.063 634.047 339.422 635.382C338.322 635.785 339.447 634.997 341.922 633.63C344.397 632.263 349.572 630.601 353.422 629.937C362.861 628.308 389.785 629.322 406.125 631.922C422.636 634.549 463.279 643.523 492.767 651.054L516.111 657.015L521.267 652.347C539.929 635.449 578.41 618.176 597.422 618.163C602.018 618.16 601.129 618.583 586.422 623.397ZM693.361 718.426C696.245 719.837 699.421 721.894 700.418 722.996C702.171 724.933 702.168 725.07 700.328 727.104C693.297 734.873 666.501 743.477 635.422 747.945C622.737 749.769 593.722 751.949 581.646 751.985L576.871 752L578.521 748.75C579.428 746.962 583.781 739.965 588.193 733.199C593.707 724.746 596.66 721.069 597.638 721.445C604.486 724.072 620.663 726.382 631.922 726.339C645.266 726.288 645.101 726.332 669.922 716.362C675.256 714.219 686.849 715.241 693.361 718.426ZM323.005 741.805C337.641 746.544 354.767 750.489 371.422 752.958C384.301 754.867 384.204 755.254 370.422 756.94C354.12 758.934 343.922 759.079 323.922 757.605C303.716 756.114 296.192 754.717 291.374 751.56C286.238 748.195 289.305 741.853 298.65 736.513C302.313 734.419 302.54 734.407 306.505 736.071C308.75 737.014 316.175 739.594 323.005 741.805ZM568.522 754.6C568.166 755.527 567.65 756.061 567.375 755.786C567.1 755.511 567.166 754.527 567.522 753.6C567.878 752.673 568.394 752.139 568.669 752.414C568.944 752.689 568.878 753.673 568.522 754.6Z" fill="black"/>
</svg>
