<svg width="721" height="905" viewBox="0 0 721 905" fill="none" xmlns="http://www.w3.org/2000/svg">
<path fill-rule="evenodd" clip-rule="evenodd" d="M271.18 1.55572C261.31 5.08472 250.765 15.2347 249.135 22.7757C248.093 27.5937 247.793 28.0247 245.999 27.2807C242.696 25.9107 230.076 25.5357 226.539 26.7027C221.61 28.3297 214.814 34.4607 212.643 39.2397C211.477 41.8077 210.793 45.6557 210.779 49.7297C210.75 58.1587 213.425 63.7837 219.426 67.9117C221.885 69.6037 223.697 71.1887 223.452 71.4337C223.011 71.8747 217.199 69.8747 211.106 67.1867C207.288 65.5017 198.873 65.3807 193.679 66.9367C177.731 71.7157 172.92 93.0287 185.057 105.14L189.257 109.331L185.854 112.295C181.626 115.979 178.808 122.008 178.779 127.432C178.734 135.929 188.037 147.902 195.907 149.476C198.672 150.029 199.667 151.284 197.879 151.963C195.814 152.746 191.79 160.32 190.733 165.411C187.557 180.709 199.087 193.351 214.53 191.504C217.13 191.193 220.045 190.633 221.007 190.26C222.405 189.719 222.757 190.117 222.757 192.239C222.757 197.461 226.985 202.907 233.663 206.286C236.154 207.546 238.759 207.902 243.357 207.609C250.212 207.172 253.74 205.068 253.78 201.391C253.794 200.045 254.958 201.44 257.038 205.296C258.817 208.596 261.564 212.988 263.141 215.056L266.01 218.816L261.343 225.772C258.776 229.598 256.244 232.995 255.716 233.321C254.345 234.168 254.532 237.106 256.092 239.24C257.377 240.997 257.5 240.989 259.342 239.033C261.746 236.48 270.666 233.796 276.744 233.796C279.288 233.796 284.107 234.721 287.454 235.851L293.54 237.906L291.691 244.015C289.723 250.513 289.869 251.808 292.566 251.775C293.683 251.761 295.444 249.216 297.754 244.275L301.251 236.796H308.399C315.694 236.796 327.072 234.016 331.594 231.128C332.879 230.308 334.018 229.785 334.124 229.966C334.231 230.148 335.615 233.088 337.2 236.501C338.785 239.913 341.286 244.025 342.759 245.637C348.892 252.352 359.079 256.522 361.684 253.384C362.776 252.069 362.686 251.727 361.12 251.235C352.348 248.481 347.554 244.328 343.228 235.739C341.349 232.007 339.093 228.805 338.215 228.625C337.129 228.401 338.245 227.059 341.703 224.427C346.779 220.564 356.475 208.629 360.825 200.888C362.09 198.637 363.424 196.796 363.789 196.796C364.155 196.796 365.133 198.525 365.963 200.638C367.822 205.37 373.103 208.197 383.257 209.894C391.809 211.323 396.733 210.221 402.936 205.49C413.789 197.212 417.658 183.45 412.758 170.557C411.658 167.663 410.758 165.193 410.758 165.066C410.757 164.94 412.486 163.955 414.598 162.877C428.613 155.727 438.273 134.29 433.322 121.326C431.199 115.768 423.508 108.637 417.787 106.923C414.8 106.028 413.88 105.335 414.549 104.484C420.476 96.9517 423.56 92.2537 426.16 86.7957C428.949 80.9417 429.257 79.3507 429.257 70.7957C429.257 62.4107 428.928 60.6257 426.451 55.5817C423.308 49.1807 416.96 43.0497 409.919 39.6137C404.05 36.7497 393.052 35.9947 387.123 38.0497L382.988 39.4817L383.034 32.3217C383.073 26.2697 382.63 24.3207 380.169 19.7357C372.6 5.63472 358.105 -1.89829 343.711 0.787715C332.758 2.83271 320.732 10.7137 317.531 17.9447C315.976 21.4567 315.467 21.4907 313.705 18.1987C311.538 14.1497 301.522 5.37872 296.133 2.81072C289.456 -0.370282 278.159 -0.93928 271.18 1.55572ZM337.257 8.79572C336.917 9.34572 336.231 9.79572 335.733 9.79572C331.925 9.79572 319.757 22.7327 319.757 26.7807C319.757 27.6787 319.059 29.2867 318.205 30.3547C316.714 32.2197 316.68 32.1977 317.335 29.7957C319.601 21.4797 327.099 12.2937 334.112 9.24272C337.967 7.56472 338.022 7.55772 337.257 8.79572ZM298.316 11.2637C299.383 12.0717 299.781 12.7467 299.198 12.7637C298.616 12.7817 297.266 12.1347 296.198 11.3277C295.131 10.5197 294.733 9.84472 295.316 9.82772C295.898 9.80972 297.248 10.4567 298.316 11.2637ZM20.9571 18.9957C20.2971 19.6557 19.7571 20.7807 19.7571 21.4957C19.7571 23.2807 18.6971 23.0957 15.7571 20.7957C12.3071 18.0967 9.89507 18.3017 8.72007 21.3927C7.59807 24.3427 8.80907 30.1577 11.2051 33.3267C13.1731 35.9297 13.1241 36.7907 11.0071 36.8177C7.65408 36.8597 0.954073 40.5997 0.248073 42.8227C-1.39193 47.9907 5.30907 52.7957 14.1591 52.7957C17.9571 52.7957 18.8601 53.2417 21.1571 56.2537C22.7241 58.3087 25.2081 60.1027 27.2761 60.6737C31.8051 61.9237 37.8011 60.3427 38.4881 57.7167C39.0011 55.7537 41.3131 55.2257 43.4491 56.5847C44.2071 57.0667 42.6131 58.4037 39.0701 60.2597C36.0051 61.8637 30.8571 65.6897 27.6281 68.7627C20.9041 75.1607 19.9931 78.5937 24.2731 81.3977C27.5911 83.5727 32.6181 82.7497 44.1171 78.1507C51.1501 75.3377 53.8311 74.7247 57.1171 75.1777C59.3941 75.4927 65.4061 76.0457 70.4771 76.4077C78.1271 76.9527 80.1251 76.7847 82.2111 75.4177C85.5891 73.2047 86.5081 69.2827 84.2371 66.7737C82.5081 64.8627 82.4231 64.8817 78.9361 67.9437L75.3921 71.0547L66.8251 70.2877C52.8901 69.0387 49.8061 69.3277 42.2571 72.5927C38.4071 74.2577 33.4571 75.9087 31.2571 76.2617L27.2571 76.9037L32.5611 71.9717C35.4781 69.2597 40.7941 65.5537 44.3741 63.7367C50.2951 60.7307 50.8261 60.2057 50.2541 57.9257C49.2491 53.9237 43.0531 49.7797 34.2921 47.2507C29.8141 45.9577 26.2961 45.6727 20.1781 46.1037C11.9791 46.6827 7.75708 46.2317 7.75708 44.7767C7.75708 43.5017 13.3181 41.9327 22.2831 40.6777C29.3701 39.6867 32.4201 39.7697 41.9631 41.2157C55.7411 43.3037 67.5351 46.2107 73.3871 48.9617C78.7611 51.4877 89.0971 62.3777 97.8041 74.6857C107.817 88.8407 129.907 124.962 129.385 126.324C128.641 128.262 120.759 128.975 115.859 127.548C111.731 126.346 111.154 125.714 106.489 117.281C97.3281 100.725 85.3081 84.7667 79.7611 81.7977C76.6781 80.1477 77.3311 82.0207 82.0791 88.4467C86.6331 94.6087 91.8311 103.449 101.101 120.796C104.188 126.571 107.631 132.702 108.754 134.421L110.795 137.547L100.127 143.921C88.5691 150.827 82.7571 155.593 82.7571 158.164C82.7571 160.571 84.9551 160.16 89.4341 156.915C96.9941 151.438 116.299 140.908 127.792 135.991C144.817 128.707 148.022 126.93 147.34 125.152C147.019 124.316 146.757 123.444 146.757 123.214C146.757 122.25 142.068 122.975 139.757 124.296C136.103 126.385 135.359 126.15 134.216 122.546C132.914 118.436 107.619 77.9377 99.7071 67.2957C91.6051 56.3977 81.4271 46.3307 75.8671 43.7167C71.6211 41.7207 53.9951 36.8347 50.9401 36.8077C49.2021 36.7917 43.9581 32.8457 34.6651 24.5627C27.0381 17.7647 23.5891 16.3637 20.9571 18.9957ZM315.757 25.7957C315.757 26.3457 315.559 26.7957 315.316 26.7957C315.073 26.7957 314.597 26.3457 314.257 25.7957C313.917 25.2457 314.116 24.7957 314.698 24.7957C315.28 24.7957 315.757 25.2457 315.757 25.7957ZM21.8781 30.7957C27.8981 34.6867 27.9791 34.7957 24.8461 34.7957C19.8871 34.7957 14.8751 31.4317 14.7891 28.0457C14.7431 26.2567 15.0251 26.3667 21.8781 30.7957ZM35.1361 30.7967C37.2701 32.9957 38.6101 34.7957 38.1141 34.7957C36.8141 34.7957 29.7571 28.8237 29.7571 27.7227C29.7571 25.9507 31.2791 26.8207 35.1361 30.7967ZM248.757 35.4127C248.757 37.2427 248.398 37.1617 246.32 34.8657C244.644 33.0127 244.657 32.9567 246.665 33.4817C247.816 33.7827 248.757 34.6517 248.757 35.4127ZM222.087 37.0457C220.977 38.2827 219.324 40.4087 218.413 41.7687C217.502 43.1277 216.757 43.7067 216.757 43.0527C216.757 41.8237 222.526 34.7957 223.535 34.7957C223.849 34.7957 223.197 35.8087 222.087 37.0457ZM355.757 40.4757C357.132 41.2717 357.431 41.6687 356.422 41.3577C355.413 41.0477 352.161 40.5077 349.196 40.1597C346.231 39.8107 344.066 39.1047 344.384 38.5907C345.133 37.3777 352.522 38.6027 355.757 40.4757ZM302.757 43.7377C302.757 44.1917 301.865 44.7957 300.774 45.0807C299.079 45.5237 298.941 45.3197 299.825 43.6697C300.792 41.8627 302.757 41.9087 302.757 43.7377ZM380.578 47.5457C379.174 49.0587 377.577 51.1407 377.029 52.1737C376.429 53.3077 375.777 53.6367 375.386 53.0047C374.737 51.9537 380.776 44.7957 382.312 44.7957C382.763 44.7957 381.982 46.0327 380.578 47.5457ZM330.519 47.4827C329.563 47.7327 327.763 47.7417 326.519 47.5027C325.275 47.2637 326.057 47.0587 328.257 47.0477C330.457 47.0367 331.475 47.2327 330.519 47.4827ZM360.923 54.1907C363.901 55.5077 366.903 57.2667 367.595 58.0997C368.56 59.2637 356.804 53.7707 354.84 52.1417C353.779 51.2607 355.959 51.9947 360.923 54.1907ZM346.246 55.7927C360.368 59.4047 374.911 69.7557 381.821 81.1117L384.975 86.2957L381.616 83.1107C373.399 75.3187 358.451 68.8857 343.432 66.6797C327.985 64.4107 308.788 68.4287 294.293 76.9657C286 81.8497 273.294 94.3197 269.758 101.046C268.384 103.659 266.697 105.796 266.009 105.796C265.32 105.796 264.757 105.509 264.757 105.157C264.757 104.806 267.193 99.5177 270.17 93.4067C280.408 72.3917 294.515 59.7177 312.53 55.3507C321.318 53.2197 336.99 53.4257 346.246 55.7927ZM32.2571 55.7957C32.6171 56.3777 31.6201 56.7957 29.8751 56.7957C28.2251 56.7957 26.5971 56.3457 26.2571 55.7957C25.8971 55.2137 26.8941 54.7957 28.6391 54.7957C30.2891 54.7957 31.9171 55.2457 32.2571 55.7957ZM383.634 58.4247C385.266 62.0067 384.706 62.0847 381.931 58.6637C380.273 56.6197 380.011 55.7957 381.02 55.7957C381.799 55.7957 382.975 56.9787 383.634 58.4247ZM271.907 60.2957C271.907 60.8177 271.423 61.4067 270.832 61.6037C270.241 61.8007 269.757 61.2127 269.757 60.2957C269.757 59.3787 270.241 58.7907 270.832 58.9877C271.423 59.1847 271.907 59.7727 271.907 60.2957ZM255.509 65.6497C254.009 66.2557 253.542 65.0447 254.342 62.6207L255.11 60.2957L255.748 62.7957C256.099 64.1707 255.992 65.4547 255.509 65.6497ZM399.699 68.3977C402.143 73.9217 404.081 80.8047 403.388 81.4977C403.113 81.7727 402.382 80.0397 401.763 77.6467C401.144 75.2537 399.764 71.3877 398.697 69.0567C396.687 64.6647 396.442 63.7957 397.21 63.7957C397.459 63.7957 398.58 65.8667 399.699 68.3977ZM412.742 69.6047C412.73 71.7097 412.515 71.9687 411.757 70.7957C410.48 68.8197 410.48 65.5067 411.757 66.2957C412.307 66.6357 412.75 68.1247 412.742 69.6047ZM334.662 78.5457C333.926 79.5087 333.196 80.4837 333.04 80.7127C332.884 80.9417 332.757 80.1537 332.757 78.9627C332.757 77.6307 333.382 76.7957 334.379 76.7957C335.768 76.7957 335.809 77.0477 334.662 78.5457ZM225.348 84.5387C224.654 85.2317 222.757 83.8227 222.757 82.6147C222.757 81.9507 223.331 82.0267 224.281 82.8157C225.119 83.5117 225.599 84.2867 225.348 84.5387ZM319.357 84.3957C319.001 85.3227 318.485 85.8567 318.21 85.5817C317.935 85.3067 318.001 84.3227 318.357 83.3957C318.713 82.4687 319.229 81.9347 319.504 82.2097C319.779 82.4847 319.713 83.4687 319.357 84.3957ZM391.312 90.0457C391.07 92.3837 390.846 94.6337 390.814 95.0457C390.728 96.1757 386.757 91.9587 386.757 90.7367C386.757 90.1547 387.207 89.9557 387.757 90.2957C388.324 90.6467 388.757 89.8057 388.757 88.3547C388.757 86.7477 389.315 85.7957 390.255 85.7957C391.42 85.7957 391.655 86.7407 391.312 90.0457ZM254.787 91.7397C253.41 94.3117 252.05 95.0787 251.226 93.7457C250.858 93.1497 251.389 92.0317 252.407 91.2607C255.028 89.2757 256.001 89.4707 254.787 91.7397ZM293.757 99.9857C293.757 101.314 290.512 100.563 290.033 99.1247C289.785 98.3797 290.391 98.1487 291.7 98.4907C292.831 98.7867 293.757 99.4597 293.757 99.9857ZM326.488 103.878C326.986 110.483 339.106 118.468 347.243 117.55L351.53 117.067L352.062 121.032C353.212 129.607 361.07 138.183 368.928 139.439C372.519 140.014 372.757 140.268 372.757 143.546C372.757 146.361 372.495 146.824 371.411 145.924C370.309 145.01 369.844 146.631 368.847 154.858C364.518 190.574 346.662 218.925 322.862 227.867C305.688 234.319 285.882 229.278 271.673 214.838C259.517 202.485 256.161 192.359 257.076 170.796C257.65 157.253 259.591 146.844 265 128.296L267.333 120.296L272.345 119.68C278.083 118.974 281.112 117.37 282.855 114.114C283.837 112.277 284.574 111.978 286.665 112.563C288.091 112.963 292.857 113.242 297.257 113.184C306.418 113.063 315.997 109.795 321.844 104.796C325.957 101.279 326.288 101.213 326.488 103.878ZM334.257 106.796C335.252 107.896 335.842 108.796 335.567 108.796C335.292 108.796 334.252 107.896 333.257 106.796C332.262 105.696 331.672 104.796 331.947 104.796C332.222 104.796 333.262 105.696 334.257 106.796ZM681.385 107.654C677.771 111.648 676.867 126.796 680.243 126.796C681.958 126.796 682.767 125.551 683.889 121.178C684.366 119.318 685.193 116.109 685.726 114.046C687.321 107.875 684.691 104.002 681.385 107.654ZM246.757 108.189C246.757 108.405 246.059 108.85 245.205 109.178C244.315 109.519 243.914 109.351 244.264 108.785C244.851 107.834 246.757 107.379 246.757 108.189ZM207.261 111.803C207.604 112.357 207.161 113.088 206.277 113.427C204.363 114.161 203.296 113.352 204.216 111.863C205.046 110.519 206.451 110.492 207.261 111.803ZM263.757 111.27C263.757 111.531 262.46 115.018 260.875 119.02C259.289 123.022 256.787 130.73 255.315 136.149C252.18 147.689 247.828 159.796 246.815 159.796C245.28 159.796 241.744 155.009 239.24 149.54C232.788 135.447 238.034 119.467 251.281 112.859C254.765 111.121 263.757 109.976 263.757 111.27ZM703.651 113.168C699.613 115.275 688.786 127.55 688.764 130.046C688.749 131.718 691.362 130.579 696.665 126.603C705.487 119.987 708.757 116.606 708.757 114.1C708.757 111.471 707.384 111.22 703.651 113.168ZM357.09 119.296L357.689 123.296L356.198 119.991C355.378 118.174 354.988 116.231 355.332 115.675C356.195 114.278 356.404 114.708 357.09 119.296ZM204.757 123.796C204.757 124.346 204.28 124.796 203.698 124.796C203.116 124.796 202.917 124.346 203.257 123.796C203.597 123.246 204.073 122.796 204.316 122.796C204.559 122.796 204.757 123.246 204.757 123.796ZM410.316 124.264C412.802 126.144 411.029 126.166 407.757 124.296C406.155 123.38 405.817 122.854 406.816 122.831C407.673 122.812 409.248 123.457 410.316 124.264ZM150.16 127.546C151.143 131.904 162.953 155.248 170.269 167.296C182.76 187.862 201.886 211.351 217.179 224.906C222.172 229.332 231.241 236.267 237.333 240.317C246.698 246.544 248.652 248.301 249.985 251.695C252.287 257.554 261.8 273.093 268.693 282.251C271.986 286.626 274.504 290.382 274.289 290.597C273.24 291.646 260.658 283.655 255.707 278.796C248.82 272.037 245.054 265.756 241.626 255.312C238.436 245.591 236.25 244.572 236.271 252.815C236.297 262.783 246.358 280.509 257.149 289.599C263.731 295.144 273.394 299.891 279.469 300.564C283.757 301.039 285.196 301.944 293.257 309.237C309.328 323.777 324.899 335.162 342.51 345.248C348.846 348.877 350.902 350.593 351.361 352.635C356.777 376.78 365.395 395.79 377.021 409.238C379.381 411.968 380.906 412.953 382.078 412.503C384.85 411.439 384.035 409.111 378.232 401.522C375.193 397.548 370.517 389.796 367.84 384.296C363.274 374.914 356.189 355.031 357.09 354.13C357.314 353.906 363.302 356.381 370.397 359.631C411.597 378.503 442.333 383.452 470.66 375.774C488.234 371.011 509.112 358.193 525.192 342.296C542.197 325.482 553.653 308.133 570.353 273.899C576.094 262.131 582.769 249.756 585.186 246.399C590.703 238.737 598.639 231.002 605.734 226.371C610.493 223.265 610.871 222.796 608.619 222.796C604.507 222.796 592.571 229.315 587.137 234.527C579.542 241.814 575.018 249.236 561.955 275.838C545.389 309.575 535.102 324.739 517.475 341.412C502.483 355.591 486.761 364.864 468.257 370.44C460.119 372.892 457.724 373.155 443.257 373.185C429.158 373.213 425.982 372.898 416.529 370.531C401.78 366.838 389.054 362 370.412 352.998L354.567 345.347L354.912 329.946C355.219 316.235 355.068 314.425 353.535 313.443C349.975 311.165 349.241 313.949 349.488 328.803L349.719 342.706L345.988 340.56C329.574 331.12 305.372 313.284 296.496 304.086L292.735 300.189L295.496 298.168C297.014 297.056 300.615 295.306 303.496 294.278C309.658 292.079 317.583 286.36 319.705 282.58C322.165 278.197 320.302 278.362 313.313 283.148C305.826 288.274 298.605 291.241 291.153 292.251L286.049 292.944L280.817 287.12C268.831 273.778 254.898 249.633 247.507 229.397C245.72 224.502 243.807 220.555 243.257 220.626C241.62 220.836 241.526 227.521 243.085 232.838C243.884 235.565 244.31 237.796 244.032 237.796C241.792 237.796 227.098 226.233 217.362 216.809C193.321 193.539 179.373 174.277 161.798 140.077C156.83 130.41 152.684 124.796 150.512 124.796C149.968 124.796 149.813 126.007 150.16 127.546ZM304.507 133.368C301.402 135.053 301.355 135.177 302.815 137.905C303.747 139.646 304.554 139.807 309.565 139.253C312.935 138.88 316.433 139.077 318.139 139.735C324.624 142.237 327.562 138.095 321.989 134.308C317.652 131.36 309.059 130.899 304.507 133.368ZM638.713 136.745C636.144 139.481 632.741 144.227 631.15 147.292C628.83 151.762 627.861 152.771 626.257 152.387C625.157 152.123 621.903 151.601 619.025 151.226C611.29 150.217 605.518 153.427 593.872 165.218C582.446 176.786 575.95 180.269 551.757 187.799C518.008 198.303 510.47 200.918 503.449 204.554C499.494 206.603 495.954 208.422 495.584 208.595C495.214 208.769 494.764 207.873 494.584 206.604C494.075 203.013 492.291 203.889 491.956 207.895C491.337 215.281 495.414 230.43 502.1 245.593C505.667 253.679 508.873 261.292 509.226 262.508C510.009 265.207 508.25 268.796 506.144 268.796C502.133 268.796 470.535 276.267 459.094 279.921C437.329 286.872 419.164 294.688 381.895 313.141C364.159 321.923 361.757 323.335 361.757 324.98C361.757 327.512 372.673 323.91 390.257 315.576C440.538 291.746 467.75 282.232 504.135 275.761C518.613 273.187 520.757 272.428 520.757 269.876C520.757 268.793 517.87 262.594 514.341 256.101C506.836 242.291 503.757 233.046 503.757 224.318C503.757 216.511 506.647 209.421 510.68 207.336C513.819 205.713 530.166 200.399 553.757 193.333C562.282 190.78 573.457 186.661 578.59 184.181C586.682 180.27 589.216 178.366 597.645 169.86C611.532 155.846 612.789 155.397 628.514 158.82C634.574 160.139 634.569 161.345 628.502 162.267C615.727 164.208 610.627 166.041 614.194 167.41C618.085 168.903 613.16 177.116 607.492 178.585C603.77 179.549 602.793 181.514 605.809 181.969C607.823 182.273 607.651 182.714 603.367 188.221C600.831 191.479 598.757 194.69 598.757 195.354C598.757 198.611 621.137 214.497 627.084 215.462C631.902 216.244 634.697 214.747 637.802 209.723C639.143 207.553 640.936 205.556 641.786 205.287C642.637 205.017 645.512 202.583 648.176 199.878L653.019 194.961L647.138 191.926C641.052 188.787 640.876 188.109 646.571 189.743C653.594 191.757 654.994 187.45 649.007 182.252C646.945 180.461 645.536 178.709 645.877 178.359C646.218 178.009 648.83 178.642 651.681 179.766C655.595 181.309 657.341 181.554 658.811 180.767C661.623 179.262 661.204 177.224 657.79 175.81C654.61 174.493 652.126 172.094 653.017 171.202C653.317 170.902 656.373 171.21 659.807 171.886C665.548 173.015 666.161 172.965 667.408 171.259C669.114 168.925 668.452 168.358 662.27 166.858C657.704 165.75 655.813 164.499 655.772 162.561C655.764 162.156 658.024 162.719 660.794 163.811C667.074 166.286 670.646 166.366 671.353 164.046C671.646 163.083 672.863 160.377 674.058 158.033C675.725 154.759 675.98 153.366 675.153 152.033C673.754 149.777 650.647 134.302 646.54 132.87C643.513 131.815 643.192 131.974 638.713 136.745ZM700.507 137.485C698.587 137.987 698.209 139.339 699.726 140.277C701.504 141.376 715.219 144.749 718.007 144.772C721.208 144.8 721.62 142.887 718.937 140.459C716.127 137.916 705.451 136.193 700.507 137.485ZM387.451 140.796C388.629 143.918 388.017 144.656 385.957 142.596C384.622 141.261 384.319 137.796 385.538 137.796C385.967 137.796 386.828 139.146 387.451 140.796ZM341.699 139.744C333.009 142.381 332.036 145.383 334.742 161.207C335.85 167.69 336.757 174.985 336.757 177.417C336.757 182.118 336.622 182.245 329.257 184.447C324.278 185.936 325.471 188.25 331.395 188.594C335.643 188.841 337.019 188.475 339.339 186.479C341.775 184.383 342.201 183.191 342.568 177.431L342.99 170.796H346.297C350.445 170.796 355.996 166.432 355.559 163.515C355.393 162.407 354.428 161.004 353.414 160.398C351.909 159.498 351.29 159.709 350.042 161.546C347.766 164.895 344.131 164.457 341.746 160.546C339.459 156.795 338.977 147.399 341.007 146.137C341.695 145.71 344.957 145.303 348.257 145.232C356.637 145.053 356.757 145.02 356.757 142.894C356.757 139.569 348.186 137.776 341.699 139.744ZM648.174 141.112C649.842 142.332 649.56 142.914 644.302 149.113C639.402 154.888 638.366 155.657 636.693 154.762C635.628 154.192 634.757 153.527 634.757 153.285C634.757 151.318 643.68 139.98 645.316 139.868C645.898 139.828 647.184 140.388 648.174 141.112ZM304.447 150.95C298.949 154.027 309.098 165.664 318.693 167.285C325.499 168.435 332.04 163.196 329.604 158.546C328.382 156.215 326.065 156.329 324.525 158.796C322.029 162.792 313.394 159.827 309.949 153.791C307.953 150.294 306.739 149.667 304.447 150.95ZM205.852 171.364C208.047 175.984 208.149 176.556 206.519 175.081C205.459 174.121 203.954 171.81 203.174 169.944C201.537 166.026 201.497 165.777 202.507 165.85C202.92 165.879 204.425 168.36 205.852 171.364ZM395.15 168.378C395.937 170.43 395.915 170.799 395.007 170.781C393.315 170.746 391.547 168.945 392.188 167.908C393.164 166.329 394.442 166.531 395.15 168.378ZM629.107 169.046C628.685 169.734 623.852 176.146 618.367 183.296C612.882 190.446 608.262 196.473 608.1 196.689C607.938 196.904 607.108 196.502 606.256 195.795C604.921 194.687 604.901 194.287 606.11 192.903C606.882 192.019 608.598 189.228 609.924 186.701C611.25 184.174 613.977 180.664 615.985 178.901C617.992 177.138 620.139 174.169 620.755 172.303C621.717 169.387 622.393 168.855 625.566 168.521C627.596 168.307 629.396 168.057 629.566 167.964C629.736 167.872 629.53 168.359 629.107 169.046ZM82.7441 173.262C87.9321 186.907 106.075 210.932 127.45 232.46C133.944 239.001 151.086 255.753 165.543 269.688C193.263 296.405 203.739 307.731 216.47 324.751C220.753 330.476 224.82 335.341 225.507 335.562C228.153 336.41 226.701 330.02 222.927 324.201C212.813 308.611 192.791 286.94 159.257 255.293C122.606 220.703 112.802 210.089 97.7131 188.662C87.5081 174.17 80.2511 166.704 82.7441 173.262ZM388.027 183.926C387.425 184.528 386.359 184.668 385.661 184.236C384.722 183.656 384.895 183.268 386.323 182.749C388.691 181.89 389.503 182.45 388.027 183.926ZM237.257 184.796C235.324 186.932 232.273 187.44 231.257 185.796C230.914 185.241 231.666 184.789 232.948 184.781C234.218 184.772 235.932 184.329 236.757 183.796C239.078 182.296 239.235 182.61 237.257 184.796ZM376.742 193.26C376.755 195.027 376.603 195.07 375.22 193.688C374.309 192.776 373.959 191.434 374.359 190.39C374.893 188.998 375.213 188.909 375.881 189.962C376.346 190.696 376.733 192.18 376.742 193.26ZM244.203 195.459C242.197 196.926 239.757 197.238 239.757 196.028C239.757 195.605 240.995 194.505 242.507 193.583C245.686 191.645 247.172 193.288 244.203 195.459ZM305.007 192.458C304.311 192.739 303.757 194.667 303.757 196.808C303.757 199.801 304.504 201.446 307.125 204.225C310.137 207.418 311.036 207.796 315.625 207.796C321.311 207.796 325.235 205.205 324.085 202.21C323.576 200.881 322.563 200.697 318.639 201.217C314.6 201.753 313.488 201.527 311.787 199.826C310.671 198.71 309.757 196.719 309.757 195.403C309.757 193.561 307.631 191.309 306.425 191.875C306.333 191.918 305.695 192.181 305.007 192.458ZM385.757 194.796C385.757 195.346 385.334 195.796 384.816 195.796C384.298 195.796 383.597 195.346 383.257 194.796C382.917 194.246 383.341 193.796 384.198 193.796C385.055 193.796 385.757 194.246 385.757 194.796ZM467.757 202.178C458.265 206.144 417.268 227.158 392.257 240.878C379.057 248.119 363.757 256.223 358.257 258.887C339.993 267.732 325.163 268.835 304.878 262.855C299.169 261.173 294.028 259.796 293.454 259.796C291.224 259.796 297.426 264.974 302.978 267.749C311.236 271.875 318.518 273.158 329.757 272.465C347.131 271.393 351.968 269.476 392.757 247.495C421.312 232.107 464.654 210.153 475.507 205.579C479.413 203.933 481.757 202.355 481.757 201.371C481.757 198.992 474.362 199.419 467.757 202.178ZM583.778 203.921C573.927 205.062 567.896 206.887 552.257 213.462C533.212 221.468 515.757 231.899 515.757 235.273C515.757 238.282 519.208 237.77 524.669 233.951C538.6 224.211 568.406 211.652 583.252 209.268C592.386 207.801 596.757 205.98 596.757 203.641C596.757 202.664 594.157 202.72 583.778 203.921ZM516.657 288.918C514.237 290.635 510.457 293.757 508.257 295.857C502.595 301.26 493.404 306.531 485.386 308.972C479.544 310.751 476.848 310.984 467.386 310.526C460.06 310.172 453.917 309.248 449.411 307.822C441.895 305.444 439.757 305.664 439.757 308.816C439.757 315.77 473.993 319.339 489.036 313.953C497.167 311.042 507.886 303.553 514.941 295.855C524.296 285.648 524.941 283.041 516.657 288.918ZM271.328 313.367C268.96 315.736 269.421 318.056 272.86 321.073C276.625 324.377 278.163 324.482 280.2 321.573C283.466 316.911 281.141 311.796 275.757 311.796C274.186 311.796 272.193 312.503 271.328 313.367ZM276.651 326.975C271.714 328.664 269.95 337.417 273.98 340.239C279.088 343.817 285.768 340.259 285.742 333.973C285.733 331.951 285.387 329.762 284.971 329.109C283.697 327.104 279.454 326.016 276.651 326.975ZM279.377 335.605C278.512 336.469 277.505 336.877 277.138 336.511C276.179 335.552 278.793 332.7 279.966 333.425C280.551 333.787 280.312 334.67 279.377 335.605ZM219.76 339.324C219.762 340.409 220.398 345.121 221.173 349.796C223.541 364.066 223.899 379.907 222.26 397.796C221.428 406.871 220.456 419.359 220.1 425.546C219.46 436.644 219.481 436.796 221.635 436.796C224.438 436.796 224.467 436.688 225.754 421.296C228.887 383.822 228.772 361.622 225.371 347.428C223.898 341.281 219.754 335.295 219.76 339.324ZM349.757 417.899C327.009 419.684 310.605 422.474 269.257 431.59C246.295 436.652 237.533 439.281 235.262 441.791C233.488 443.751 233.508 443.796 236.162 443.796C237.655 443.796 243.86 442.671 249.951 441.296C256.042 439.921 261.359 438.796 261.766 438.796C262.174 438.796 262.791 440.258 263.137 442.046C263.484 443.834 267.028 451.744 271.012 459.624L278.257 473.953L278.123 483.124C278.019 490.297 277.221 495.024 274.465 504.812C268.004 527.753 247.642 579.226 221.224 639.398C178.75 736.14 161.804 779.428 157.167 803.029C154.877 814.684 156.309 817.87 160.639 810.75L162.358 807.923L165.1 811.359L167.842 814.796H164.8C161.23 814.796 160.65 817.133 163.801 818.82C164.925 819.421 176.631 820.942 189.813 822.2C202.995 823.457 213.942 824.668 214.14 824.891C214.722 825.546 210.924 842.919 209.187 847.546C207.948 850.848 207.08 851.796 205.297 851.796C204.035 851.796 202.423 852.494 201.715 853.347C200.628 854.656 200.764 854.985 202.593 855.463C204.898 856.066 205.398 857.282 203.757 858.296C203.207 858.636 202.757 859.787 202.757 860.855C202.757 862.354 202.017 862.823 199.507 862.914C197.719 862.98 195.838 862.952 195.325 862.854C193.985 862.596 179.784 866.417 169.074 869.916C159.198 873.143 152.374 877.33 151.492 880.703C150.765 883.481 153.625 886.902 157.88 888.347C161.217 889.479 161.175 889.502 154.398 890.236C144.269 891.333 147.387 892.867 161.924 893.94C172.906 894.75 208.945 894.336 222.257 893.246C236.726 892.062 239.757 891.531 239.757 890.18C239.757 889.236 238.505 888.796 235.816 888.796C233.648 888.796 231.619 888.382 231.306 887.875C230.993 887.369 231.834 882.982 233.175 878.125C234.516 873.269 237.221 861.824 239.187 852.692C241.152 843.56 243.37 834.335 244.115 832.192L245.469 828.296L252.363 828.796C256.155 829.071 264.453 829.296 270.804 829.296C280.027 829.296 282.876 828.951 284.965 827.581C290.839 823.728 303.542 790.183 322.372 728.796C336.289 683.424 342.037 660.959 346.229 635.546C347.414 628.365 349.194 631.364 350.978 643.547C351.924 650.009 353.796 661.371 355.137 668.796C358.624 688.097 360.032 699.997 366.795 767.296C370.111 800.296 373.27 828.959 373.815 830.992C374.93 835.156 378.256 838.197 383.623 839.96C385.938 840.72 395.347 841.204 409.548 841.293C435.058 841.453 434.05 841.114 437.665 850.736C438.79 853.729 439.599 856.287 439.465 856.422C439.33 856.557 435.87 856.246 431.777 855.732C424.919 854.871 423.998 854.467 420.046 850.589C413.431 844.097 415.033 850.091 423.677 864.182L427.902 871.068L421.331 877.48C416.154 882.531 412.584 884.908 404.508 888.682C393.194 893.97 391.292 895.583 392.001 899.29C392.346 901.099 392.045 901.796 390.918 901.796C389.669 901.796 389.607 902.045 390.608 903.046C393.005 905.44 473.977 903.909 476.463 901.423C477.625 900.261 475.395 898.795 472.448 898.782C467.034 898.759 464.757 897.754 464.757 895.387C464.757 892.86 455.211 867.478 447.987 850.796C445.248 844.471 443.142 839.143 443.306 838.955C443.471 838.768 448.483 837.582 454.444 836.319C474.53 832.065 492.719 824.746 498.476 818.601C500.377 816.572 500.653 815.306 500.4 809.765C500.168 804.666 498.668 799.483 493.32 785.296C470.791 725.528 461.759 685.571 457.268 625.796C452.802 566.359 446.634 534.496 435.172 511.652C426.964 495.292 407.441 469.391 397.764 462.022C394.621 459.629 392.851 457.515 392.814 456.111C392.783 454.91 389.382 447.445 385.257 439.523C381.132 431.601 377.757 424.597 377.757 423.958C377.757 423.319 378.896 422.796 380.288 422.796C383.234 422.796 384.525 420.426 382.746 418.283C381.347 416.597 368.279 416.445 349.757 417.899ZM345.089 428.824C361.048 430.653 371.765 436.04 379.266 446.004C381.456 448.915 383.925 451.822 384.752 452.465C386.74 454.01 385.581 454.258 364.257 456.846C326.042 461.483 298.26 467.171 289.143 472.223L285.03 474.503L283.356 469.193C282.436 466.273 277.867 458.171 273.204 451.188C268.542 444.206 264.846 438.374 264.992 438.228C265.138 438.082 276.282 435.878 289.757 433.33C303.232 430.781 314.932 428.546 315.757 428.362C319.165 427.603 336.862 427.882 345.089 428.824ZM227.257 827.686C229.457 828.701 232.343 830.711 233.67 832.152C236.037 834.722 236.058 834.903 234.773 841.712C234.052 845.53 233.096 849.248 232.647 849.975C232.098 850.864 228.901 851.409 222.864 851.643L213.896 851.99L215.216 846.643C215.942 843.702 217.099 837.809 217.788 833.546C219.208 824.755 219.933 824.306 227.257 827.686ZM231.27 860.046C227.84 877.3 224.543 886.803 221.994 886.781C218.902 886.753 218.068 885.401 217.469 879.443C216.818 872.971 214.735 869.796 211.141 869.796C208.331 869.796 205.735 872.461 201.046 880.158L197.476 886.02L180.866 885.547C165.251 885.102 157.757 883.862 157.757 881.724C157.757 880.544 161.768 878.572 170.646 875.388C177.313 872.997 178.201 872.888 179.725 874.267C180.654 875.108 182.082 875.796 182.899 875.796C185.68 875.796 194.598 870.873 195.188 869.012C195.889 866.804 202.111 863.611 204.172 864.402C205.105 864.76 206.584 863.504 208.322 860.877L211.023 856.796H221.469H231.916L231.27 860.046ZM440.241 862.26L446.225 862.376L451.891 876.836C459.891 897.252 459.672 895.536 454.374 896.331C448.646 897.19 447.757 896.564 447.757 891.671C447.757 881.813 443.354 881.257 431.994 889.68C421.239 897.655 420.863 897.815 411.385 898.484C401.722 899.166 397.027 897.784 402.257 895.797C403.907 895.17 408.182 893.244 411.757 891.517C415.332 889.79 418.814 888.49 419.496 888.628C420.177 888.766 421.752 888.325 422.996 887.649C424.239 886.972 426.12 886.348 427.176 886.262C428.231 886.176 430.133 884.898 431.403 883.422C434.673 879.619 434.129 870.468 430.287 864.662L427.601 860.603L430.929 861.373C432.759 861.797 436.95 862.196 440.241 862.26ZM211.757 882.855V887.796H207.757C205.557 887.796 203.757 887.566 203.757 887.284C203.757 885.964 210.33 877.032 210.998 877.445C211.416 877.703 211.757 880.137 211.757 882.855ZM441.757 894.296V897.796H436.59C433.749 897.796 431.664 897.556 431.957 897.262C433.473 895.747 440.359 890.848 441.007 890.824C441.42 890.809 441.757 892.371 441.757 894.296Z" fill="black"/>
</svg>
