<svg width="767" height="748" viewBox="0 0 767 748" fill="none" xmlns="http://www.w3.org/2000/svg">
<path fill-rule="evenodd" clip-rule="evenodd" d="M404.279 3.58469C401.171 9.14568 400.116 25.7127 402.493 31.6187C404.354 36.2417 406.681 37.1897 407.405 33.6187C407.943 30.9617 409.236 12.5157 409.384 5.38869C409.517 -1.03231 407.297 -1.81731 404.279 3.58469ZM423.487 17.2637C419.193 19.1427 413.782 27.9477 413.2 34.0047C412.781 38.3617 412.941 38.8687 414.738 38.8687C416.037 38.8687 417.195 37.7807 418.022 35.7837C418.725 34.0867 421.489 29.6997 424.165 26.0337C430.39 17.5047 430.147 14.3507 423.487 17.2637ZM430.987 36.7987C425.877 37.8207 422.814 39.7447 423.208 41.6857C423.498 43.1147 424.675 43.3247 431.018 43.0737C439.221 42.7507 443.987 41.3577 443.987 39.2827C443.987 36.2767 438.674 35.2617 430.987 36.7987ZM319.857 37.9397C300.718 40.7517 283.519 51.8417 273.047 68.1227C270.172 72.5927 268.328 74.5837 267.595 74.0097C254.239 63.5417 249.415 61.7187 233.454 61.1047C224.392 60.7557 219.825 61.0437 214.954 62.2707C196.396 66.9457 180.261 77.0777 170.324 90.2977C161.563 101.952 154.074 120.843 152.32 135.707C151.716 140.833 151.587 141.022 149.089 140.457C134.936 137.254 111.701 137.875 95.0111 141.901C70.1811 147.893 55.0001 162.632 50.5201 185.099C44.9191 213.179 47.0051 287.339 55.0511 346.243C58.5231 371.656 61.9881 386.369 64.3191 385.592C67.2641 384.61 67.1231 378.904 63.5731 355.369C54.6601 296.275 52.2841 213.911 58.6701 185.369C61.8671 171.08 69.3481 161.615 82.2921 155.482C93.4011 150.218 101.617 148.498 115.987 148.429C129.905 148.362 134.414 149.671 140.737 155.616C143.623 158.329 143.985 159.271 143.973 164.02C143.949 173.408 143.881 173.485 135.973 173.038C115.496 171.881 96.7421 183.218 92.9441 199.049C89.1881 214.705 97.1571 239.071 114.469 264.869C129.068 286.624 144.749 304.813 187.237 349.274L204.987 367.848V377.728C204.987 383.161 204.308 391.603 203.478 396.488C201.043 410.812 194.227 437.14 188.492 454.369C181.373 475.756 179.774 482.215 180.561 486.409C181.861 493.341 182.567 491.969 192.531 463.176C199.926 441.802 207.995 413.595 209.976 402.188C210.567 398.788 212.411 393.004 214.075 389.334C216.916 383.07 217.209 382.76 218.873 384.265C224.246 389.129 224.404 382.335 219.105 374.274C215.136 368.236 207.412 359.711 175.106 325.713C125.958 273.992 105.073 243.477 100.365 216.508C96.4431 194.042 108.233 182.542 137.987 179.812C143.762 179.282 149.725 178.592 151.237 178.279C153.498 177.811 153.987 178.06 153.987 179.678C153.987 183.624 159.218 199.595 163.384 208.369C165.735 213.319 170.217 221.113 173.344 225.689L179.03 234.009L173.258 230.954C165.41 226.8 159.987 226.338 159.987 229.822C159.987 231.145 158.497 232.518 155.366 234.08C152.825 235.347 150.778 236.831 150.817 237.377C150.857 237.922 153.457 238.79 156.595 239.305C161.057 240.036 163.237 239.904 166.594 238.697L170.886 237.153L180.187 242.648C200.412 254.597 224.23 264.539 239.487 267.401C249.325 269.246 264.199 269.057 266.195 267.061C267.081 266.175 267.734 266.233 268.923 267.304C271.135 269.294 279.971 272.633 290.487 275.452C311.027 280.957 329.756 276.795 340.797 264.271C345.287 259.179 345.329 259.159 349.398 260.097C355.729 261.556 386.376 260.429 393.487 258.475C400.613 256.517 416.199 249.195 422.568 244.813C425.061 243.098 428.425 239.866 430.044 237.632C433.227 233.238 434.021 227.869 431.487 227.869C429.763 227.869 429.458 225.314 431.064 224.321C431.657 223.955 434.89 223.014 438.25 222.231C444.455 220.783 446.987 219.442 446.987 217.604C446.987 216.953 444.788 216.814 440.904 217.22C437.512 217.574 432.923 217.378 430.533 216.776L426.245 215.697L424.604 208.533C421.817 196.373 421.028 188.019 420.998 170.369C420.928 128.736 417.857 111.479 406.493 88.8687C397.903 71.7767 389.594 61.2417 378.487 53.3617C360.355 40.4967 339.605 35.0387 319.857 37.9397ZM282.521 126.06C292.059 132.455 305.062 138.869 308.491 138.869C311.073 138.869 309.251 140.652 305.922 141.383C304.248 141.751 301.043 143.799 298.798 145.934C295.152 149.403 294.777 150.19 295.286 153.323C296.078 158.202 299.737 162.531 308.004 168.369C323.1 179.028 324.744 181.258 321.338 186.456C318.754 190.4 321.007 191.357 324.776 187.914C330.144 183.011 328.674 176.978 320.651 170.982L316.118 167.596L320.294 165.482C325.365 162.917 329.547 157.248 327.864 155.221C326.243 153.267 324.319 153.556 322.599 156.013C320.192 159.449 315.771 161.855 311.853 161.862C308.878 161.868 307.564 161.143 304.603 157.866C302.614 155.665 300.987 153.501 300.987 153.057C300.987 150.989 303.993 148.639 309.487 146.413C312.787 145.076 315.618 143.358 315.778 142.595C316.02 141.439 317.431 141.508 324.278 143.015C328.793 144.008 336.136 144.832 340.596 144.845L348.706 144.869L351.306 156.119C355.298 173.387 355.988 178.372 355.972 189.803C355.955 202.121 354.222 210.479 349.918 219.006C344.082 230.566 334.516 238.651 320.885 243.542C314.39 245.872 311.899 246.207 300.487 246.283C285.008 246.385 279.851 245.286 267.036 239.152C259.062 235.336 256.235 233.279 248.952 225.996C240.07 217.115 238.573 214.641 228.395 192.041C226.828 188.561 225.124 185.454 224.61 185.136C224.042 184.785 223.904 187.588 224.259 192.277L224.842 199.996L221.665 199.338C215.703 198.103 208.62 193.397 205.237 188.422C202.488 184.38 201.987 182.743 201.987 177.813C201.987 172.921 202.345 171.732 204.21 170.426C205.432 169.57 207.781 168.869 209.43 168.869C213.474 168.869 222.987 171.134 222.987 172.096C222.987 173.855 227.939 172.673 232.066 169.929C249.468 158.355 264.903 139.651 269.807 124.195C270.731 121.283 271.725 119.005 272.015 119.134C272.305 119.263 277.033 122.38 282.521 126.06ZM204.487 134.869C204.147 135.419 203.333 135.862 202.678 135.854C201.962 135.844 202.086 135.451 202.987 134.869C204.908 133.627 205.254 133.627 204.487 134.869ZM510.487 135.001C497.224 136.272 491.076 137.594 485.487 140.376C479.863 143.175 475.271 146.487 476.002 147.217C476.269 147.483 484.587 146.825 494.487 145.755C504.387 144.684 520.812 143.557 530.987 143.25C548.402 142.724 550.601 142.873 568.487 145.799C590.684 149.431 595.954 150.82 605.202 155.477C618.215 162.031 622.875 168.5 625.013 182.978C625.613 187.043 627.038 195.994 628.181 202.869C630.107 214.461 630.213 217.91 629.641 250.369C629.302 269.619 628.382 295.494 627.596 307.869C626.811 320.244 625.367 342.76 624.388 357.904C623.409 373.048 622.952 386.323 623.372 387.404C624.114 389.313 624.188 389.305 625.981 387.108C629.63 382.635 630.445 375.421 634.48 311.869C639.827 227.638 638.671 183.02 630.697 165.946C623.112 149.703 595.775 138.337 555.987 134.884C542.607 133.723 523.314 133.773 510.487 135.001ZM368.705 143.782C370.379 145.963 370.296 156.231 368.572 160.151C367.794 161.921 366.046 164.706 364.689 166.341L362.221 169.313L361.05 163.341C360.405 160.056 358.864 154.115 357.624 150.139L355.369 142.908L359.428 141.524C363.737 140.054 366.327 140.685 368.705 143.782ZM275.93 149.914C271.945 150.859 262.361 155.455 261.513 156.827C261.21 157.318 261.492 158.884 262.141 160.308C263.49 163.268 263.564 163.258 274.817 158.63C278.848 156.972 282.371 155.033 282.644 154.321C283.193 152.889 281.332 148.811 280.202 148.969C279.809 149.025 277.886 149.45 275.93 149.914ZM426.737 149.43C424.406 151.831 427.555 154.232 437.221 157.423C461.867 165.56 477.968 179.121 483.12 196.08C484.889 201.904 485.16 204.8 484.769 213.709C484.108 228.753 480.008 240.265 464.59 270.369C450.629 297.63 446.387 304.822 428.252 331.975C410.514 358.534 400.691 375.151 398.167 382.869L396.041 389.369L398.566 386.369C401.706 382.639 445.516 317.626 453.149 305.369C467.09 282.985 483.543 250.476 488.569 235.385C494.957 216.199 494.342 198.965 486.751 184.472C480.014 171.609 462.915 157.782 446.793 152.159C439.351 149.564 428.094 148.032 426.737 149.43ZM285.624 169.46C281.455 172.382 279.938 172.869 274.996 172.869C268.357 172.869 265.839 174.578 268.524 177.263C273.716 182.455 295.084 174.801 293.813 168.205C293.271 165.389 290.915 165.75 285.624 169.46ZM223.987 167.31C223.987 167.553 223.537 168.029 222.987 168.369C222.437 168.709 221.987 168.51 221.987 167.928C221.987 167.346 222.437 166.869 222.987 166.869C223.537 166.869 223.987 167.067 223.987 167.31ZM152.987 175.838C152.987 176.37 152.312 176.547 151.487 176.231C150.662 175.914 149.987 175.478 149.987 175.262C149.987 175.046 150.662 174.869 151.487 174.869C152.312 174.869 152.987 175.305 152.987 175.838ZM295.04 208.305C292.066 211.889 299.606 217.859 307.115 217.865C312.075 217.869 314.406 216.23 313.792 213.167C313.496 211.692 312.61 211.426 308.865 211.686C305.145 211.944 303.735 211.528 301.249 209.436C297.75 206.491 296.703 206.301 295.04 208.305ZM326.312 255.119C326.64 257.456 327.193 260.758 327.54 262.456C328.144 265.407 327.936 265.649 322.829 267.945C318.13 270.058 316.103 270.335 305.987 270.251C294.805 270.157 285.967 268.488 285.639 266.407C285.057 262.722 312.764 251.294 323.101 250.955C325.435 250.878 325.779 251.325 326.312 255.119ZM342.086 283.355C332.967 288.838 322.128 292.534 311.118 293.913C301.887 295.069 296.913 294.394 284.273 290.268C279.438 288.689 276.327 288.177 274.862 288.719C272.745 289.503 272.785 289.612 276.081 292.097C277.954 293.51 283.223 295.836 287.789 297.267C306.221 303.044 331.365 298.836 347.002 287.358C350.686 284.654 352.01 283.054 351.79 281.573C351.623 280.447 351.037 279.386 350.487 279.215C349.937 279.044 346.156 280.907 342.086 283.355ZM313.085 313.265C309.979 316.571 310.574 320.688 314.487 322.972C320.623 326.553 325.987 324.341 325.987 318.229C325.987 311.502 317.727 308.324 313.085 313.265ZM315.544 338.807C313.354 341.226 314.23 348.112 317.093 350.975C319.874 353.756 324.413 353.414 326.914 350.234C331.338 344.611 327.952 336.869 321.069 336.869C318.608 336.869 316.688 337.542 315.544 338.807ZM321.987 345.31C321.987 345.553 321.537 346.029 320.987 346.369C320.437 346.709 319.987 346.51 319.987 345.928C319.987 345.346 320.437 344.869 320.987 344.869C321.537 344.869 321.987 345.067 321.987 345.31ZM53.9871 396.376C37.9501 400.285 23.4331 410.871 13.5411 425.869C4.39908 439.73 0.0210835 456.418 8.34903e-05 477.488C-0.0209165 498.489 3.91808 515.342 13.5701 535.55C22.8061 554.889 43.0611 581.248 58.3831 593.869C65.3041 599.57 77.0171 607.172 77.7501 606.439C79.1011 605.088 75.2381 600.371 61.1861 586.213C42.6081 567.496 31.3551 552.926 23.1651 536.986C12.1991 515.643 7.80608 498.867 7.81408 478.369C7.82908 439.883 26.6731 411.334 56.7371 404.25C75.5851 399.808 93.2421 406.495 113.185 425.626C124.702 436.674 132.234 446.762 139.241 460.526C155.638 492.736 160.828 526.659 156.483 573.242C155.655 582.112 154.726 592.126 154.416 595.497L153.854 601.624L135.92 602.047C116.86 602.497 113.914 603.222 117.314 606.626C118.879 608.193 122.655 608.432 154.771 608.995C211.303 609.987 328.406 609.928 340.487 608.903C346.537 608.389 353.962 607.101 356.987 606.041L362.487 604.113L358.487 603.241C356.287 602.762 342.112 602.463 326.987 602.579C302.416 602.766 299.7 602.63 301.487 601.297C309.783 595.111 316.382 588.788 324.897 578.869C330.326 572.544 335.926 566.294 337.341 564.98C339.773 562.72 340.046 562.678 342.363 564.196C348.603 568.284 359.605 584.184 370.507 604.869C375.043 613.475 376.973 615.904 381.614 618.847C383.99 620.354 385.647 621.876 385.294 622.228C384.014 623.509 391.053 622.823 399.174 620.876C411.234 617.985 411.632 618.052 412.424 623.119C412.79 625.456 415.93 634.794 419.403 643.869L425.718 660.369L418.848 661.553C407.07 663.583 405.343 664.752 411.136 666.771C415.239 668.201 468.467 668.23 483.987 666.81C498.256 665.505 511.868 662.421 516.2 659.512C523.036 654.922 520.403 648.127 509.694 642.721C496.471 636.046 468.481 632.012 461.987 635.844C459.572 637.27 459.734 637.349 466.728 638.188C473.856 639.043 473.946 639.09 472.478 641.185C470.739 643.668 470.555 647.194 472.022 649.935C473.558 652.805 475.738 652.279 476.49 648.857C476.863 647.155 478.569 644.764 480.413 643.357C484.441 640.285 486.502 640.038 485.022 642.803C483.642 645.382 483.702 649.869 485.116 649.869C485.737 649.869 487.972 648.309 490.083 646.402C493.917 642.937 493.924 642.936 498.048 644.391C504.419 646.638 511.987 651.041 511.987 652.5C511.987 653.987 505.092 656.106 493.987 658.032C483.243 659.894 441.874 659.727 436.5 657.799C432.549 656.382 432.464 656.241 427.205 642.418C421.919 628.527 421.905 628.456 423.751 625.918C424.771 624.516 427.637 622.385 430.12 621.182C436.701 617.994 457.675 611.251 463.487 610.455C471.89 609.304 489.346 605.809 491.863 604.774C493.963 603.911 494.182 603.307 493.748 599.583C492.395 587.965 459.331 525.886 434.478 488.298C412.156 454.538 394.029 434.663 372.106 419.91C363.989 414.448 351.342 408.53 342.987 406.285C334.358 403.965 316.837 403.942 308.055 406.239C299.046 408.595 285.16 415.693 274.037 423.628C262.246 432.038 242.394 451.135 229.953 466.033C213.701 485.496 208.833 489.174 191.978 494.727C185.893 496.732 185.201 497.278 181.347 503.12C179.08 506.557 174.987 513.306 172.253 518.118L167.282 526.866L166.614 518.173C164.71 493.403 154.786 464.444 142.692 448.369C129.226 430.469 126.243 426.789 120.149 420.556C107.644 407.768 94.7861 399.673 81.9231 396.492C74.1251 394.564 61.6361 394.512 53.9871 396.376ZM617.987 397.357C604.281 400.442 588.708 410.061 576.544 422.956C557.331 443.323 546.278 465.025 545.266 484.369C544.872 491.901 545.121 494.084 546.79 497.752L548.785 502.134L551.424 493.252C563.481 452.658 574.717 432.986 595.004 416.95C618.448 398.419 647.329 399.931 668.031 420.774C680.064 432.889 685.733 445.998 688.071 467.119C691.605 499.036 678.944 534.925 650.343 574.061C645.798 580.281 641.13 587.057 639.969 589.119C637.925 592.751 637.919 592.869 639.779 592.869C647.474 592.869 668.416 565.029 681.682 537.162C692.266 514.932 696.383 498.207 696.4 477.369C696.423 450.352 689.581 430.739 674.639 414.994C668.715 408.751 656.838 401.217 649.11 398.799C640.423 396.081 626.517 395.437 617.987 397.357ZM433.081 399.95C424.841 401.394 415.494 406.499 408.587 413.327C401.938 419.902 395.987 428.211 395.987 430.92C395.987 431.86 398.574 434.576 401.737 436.956C429.567 457.9 465.501 514.13 495.943 584.369C499.995 593.719 504.16 602.521 505.197 603.929C506.888 606.226 516.807 630.813 519.091 638.369C521.212 645.39 526.987 652.689 526.987 648.349C526.987 646.002 518.038 616.319 515.496 610.236C513.566 605.617 514.23 603.425 518.039 601.847C521.547 600.394 528.904 601.124 530.104 603.043C530.56 603.772 532.587 608.869 534.608 614.369C540.291 629.831 539.709 629.301 552.183 630.37L559.878 631.029L558.243 634.459C557.032 636.998 556.899 638.181 557.731 639.013C558.564 639.846 559.958 639.194 563.101 636.503C568.302 632.051 570.943 631.729 570.675 635.58C570.429 639.129 573.025 639.69 576.906 636.927L579.836 634.84L585.461 636.945C592.235 639.48 596.563 642.925 595.723 645.114C594.907 647.241 586.655 648.869 576.688 648.87C564.704 648.871 547.71 650.669 543.651 652.365C535.303 655.853 537.711 656.185 566.587 655.526C591.624 654.955 608.773 653.416 610.614 651.576C611.364 650.826 606.688 648.869 604.145 648.869C602.755 648.869 602.505 648.127 602.811 644.915C603.319 639.592 600.655 636.037 593.172 632.048C586.071 628.264 570.161 624.309 556.586 622.954C551.14 622.411 546.324 621.606 545.885 621.167C545.445 620.727 543.942 617.33 542.544 613.618L540.004 606.869L547.746 606.882C552.003 606.89 575.962 607.335 600.987 607.871C629.215 608.476 652.75 608.497 662.987 607.925C678.905 607.036 679.537 607.074 680.906 609.007C684.092 613.505 710.502 647.511 723.455 663.794C749.883 697.013 760.473 708.048 764.46 706.518C768.273 705.054 765.951 701.051 753.935 688.369C750.809 685.069 742.473 675.169 735.412 666.369C728.351 657.569 719.388 646.544 715.494 641.869C711.6 637.194 705.452 629.544 701.833 624.869C698.213 620.194 692.83 614.206 689.869 611.562C686.909 608.917 683.023 605.363 681.234 603.663L677.982 600.573L663.234 601.251C655.123 601.625 624.818 601.451 595.889 600.866C562.172 600.184 542.385 600.147 540.767 600.763C538.575 601.596 538.088 601.385 537.077 599.167C536.436 597.761 536.088 596.434 536.304 596.219C536.52 596.003 540.474 595.173 545.091 594.374C558.393 592.072 570.897 588.768 573.004 586.997C574.916 585.392 574.908 585.268 572.449 578.059C569.776 570.222 555.035 538.052 541.433 510.369C526.619 480.218 509.851 452.828 494.196 433.207C473.667 407.477 453.318 396.404 433.081 399.95ZM159.737 601.558C158.775 601.81 157.199 601.81 156.237 601.558C155.275 601.307 156.062 601.101 157.987 601.101C159.912 601.101 160.699 601.307 159.737 601.558ZM100.356 609.077C99.2241 610.338 95.5911 614.969 92.2821 619.369C88.9721 623.769 78.6651 635.45 69.3761 645.326C20.1101 697.708 14.8911 704.025 16.2721 709.611C16.6051 710.958 18.4331 709.522 24.0971 703.464C28.1611 699.116 43.4881 683.141 58.1561 667.964C72.8241 652.787 88.2051 636.345 92.3361 631.427C100.518 621.685 107.19 611.241 106.747 608.869C106.296 606.458 102.6 606.578 100.356 609.077ZM206.987 641.366C190.983 644.588 173.996 654.986 169.104 664.553C167.703 667.293 167.663 672.395 169.022 674.935C169.883 676.544 169.725 676.869 168.081 676.869C165.118 676.869 164.555 678.725 167.181 679.836C171.207 681.538 191.955 683.95 207.487 684.522C224.244 685.139 253.61 682.89 259.176 680.563C260.997 679.802 263.149 678.381 263.958 677.406C265.353 675.723 264.858 675.652 254.208 676.017C248.036 676.228 242.987 676.253 242.987 676.073C242.987 675.892 243.729 673.477 244.636 670.704C246.277 665.685 245.824 659.009 243.463 653.461C242.705 651.677 242.908 651.697 246.569 653.756C248.724 654.968 253.55 658.64 257.295 661.915C261.039 665.189 264.478 667.869 264.938 667.869C266.616 667.869 266.936 664.671 265.53 661.951C263.236 657.516 253.86 649.573 246.835 646.115C234.658 640.12 221.162 638.512 206.987 641.366ZM231.614 651.451C234.076 654.095 236.578 658.133 237.53 660.999C239.125 665.802 239.107 666.146 236.967 671.417C235.75 674.416 234.195 676.869 233.51 676.869C232.826 676.869 230.166 677.157 227.598 677.509L222.93 678.149L223.959 675.444C226.597 668.505 223.187 656.103 216.721 649.119L214.638 646.869H220.993C227.253 646.869 227.41 646.937 231.614 651.451ZM160.073 654.966C144.4 658.002 138.74 673.752 149.935 683.172C162.359 693.626 206.292 697.932 257.987 693.764C270.957 692.718 283.56 690.37 284.517 688.821C284.82 688.33 283.929 687.642 282.536 687.292L280.002 686.656L281.995 683.858C284.801 679.917 284.648 673.839 281.673 671.043C278.525 668.087 277.625 668.311 278.338 671.874C280.322 681.793 270.551 685.072 233.058 687.072C178.259 689.995 139.978 679.724 153.875 665.828C155.687 664.015 159.078 662.296 162.98 661.211C168.953 659.55 171.242 657.654 169.37 655.914C167.769 654.426 164.55 654.098 160.073 654.966ZM202.487 654.841C204.687 655.349 207.459 656.891 208.647 658.268C210.931 660.914 214.275 669.13 215.334 674.693L215.967 678.018L206.727 677.378C185.711 675.922 173.987 673.087 173.987 669.46C173.987 666.143 185.366 655.902 190.492 654.606C193.781 653.774 198.247 653.861 202.487 654.841ZM671.487 701.573C662.687 701.715 573.137 702.753 472.487 703.88C198.511 706.946 77.9711 708.748 73.4871 709.844C71.2871 710.381 63.6371 710.844 56.4871 710.871C37.7041 710.943 10.9871 713.898 10.9871 715.904C10.9871 717.699 35.7421 718.076 155.487 718.102C226.437 718.118 278.412 718.47 270.987 718.884C263.562 719.299 224.412 720.151 183.987 720.779C68.6191 722.569 63.0611 722.709 52.8151 724.077C44.0461 725.249 38.7741 726.848 43.5701 726.883C44.6241 726.89 54.4821 727.35 65.4751 727.905C87.8741 729.034 204.646 727.857 316.987 725.37C424.413 722.991 529.118 721.829 573.487 722.524C613.716 723.154 632.549 722.587 631.431 720.779C630.83 719.806 642.947 719.392 672.487 719.378C684.874 719.372 691.111 718.989 692.487 718.149C694.181 717.116 693.34 716.914 686.987 716.825C682.862 716.768 677.462 716.36 674.987 715.92C672.036 715.395 678.405 715.063 693.487 714.956C723.562 714.744 759.84 713.244 762.95 712.085L765.413 711.167L763.217 709.992C758.544 707.491 744.279 706.7 712.987 707.207C680.02 707.741 678.569 706.633 710.487 705.3C727.31 704.598 736.61 703.474 731.487 702.764C730.387 702.611 733.762 702.208 738.987 701.869C748.334 701.262 703.031 701.063 671.487 701.573ZM750.8 702.552C751.521 702.841 752.384 702.805 752.716 702.473C753.048 702.141 752.458 701.905 751.404 701.948C750.239 701.996 750.002 702.233 750.8 702.552ZM701.256 718.562C702.229 718.816 703.579 718.799 704.256 718.525C704.933 718.251 704.137 718.044 702.487 718.064C700.837 718.084 700.283 718.308 701.256 718.562ZM472.987 736.552C462.812 736.679 379.787 737.699 288.487 738.819C197.187 739.938 117.987 741.31 112.487 741.867C106.987 742.425 100.012 742.934 96.9871 742.999L91.4871 743.119L96.9871 743.934C119.018 747.199 221.598 747.794 472.318 746.112C571.83 745.445 583.268 745.207 584.318 743.782C585.203 742.581 588.285 742.01 596.987 741.434C609.458 740.608 629.194 739.18 643.487 738.069C652.168 737.394 651.834 737.342 634.077 736.619C617.796 735.956 523.877 735.917 472.987 736.552Z" fill="black"/>
</svg>
